<svg width="464" height="294" viewBox="0 0 464 294" fill="none" xmlns="http://www.w3.org/2000/svg">
<path d="M459.3 209.887C464.267 193.789 465.427 176.66 461.865 160.193C456.295 134.435 438.349 103.251 386.56 89.7933C288.515 64.3173 254.471 -10.184 162.757 13.5427C162.757 13.5427 113.539 22.4867 90.2453 103.927C66.952 185.368 -24.3214 186.753 7.10531 257.665C12.2426 269.256 26.072 281.9 45.9293 293.843L417.861 292.592C443.565 261.688 451.565 234.956 459.3 209.887" fill="#F1F2EB"/>
<path d="M371.538 151.645H357.584V136.38C357.584 128.717 352.246 122.315 345.089 120.651V101.705H339.953V120.291C331.716 121.033 325.257 127.948 325.257 136.38V152.093H311.376V169.604H310.441V202.147L285.209 201.967V163.071H256.3V191.575H236.014V219.265H211.499V292.561H292.947V292.551H310.441V292.561H412.572V200.132H371.502L371.538 151.645" fill="#CCCDC6"/>
<path d="M83.592 191.929V155.493H97.2507V136.005H102.387V155.493H114.971V191.929H129.089V213.759H151.591V139.397H198.568V292.561H167.956H154.768H121.584H106.259H66.2161V191.929H83.592Z" fill="#CCCDC6"/>
<path d="M340.24 292.189L126.131 292.357C118.021 292.364 111.441 285.796 111.435 277.687L354.912 277.496C354.917 285.605 348.349 292.185 340.24 292.189Z" fill="#3F4FAA"/>
<path d="M340.236 287.135L126.127 287.301C119.796 287.307 114.415 283.299 112.348 277.685L111.435 277.687C111.441 285.796 118.021 292.364 126.131 292.357L340.24 292.189C348.349 292.185 354.917 285.605 354.912 277.496H353.999C351.941 283.113 346.565 287.131 340.236 287.135" fill="#4B5BB2"/>
<path d="M247.009 282.496L219.347 282.517C216.632 282.52 214.428 280.32 214.427 277.605L251.92 277.577C251.921 280.292 249.724 282.493 247.009 282.496" fill="#36419C"/>
<path d="M342.381 277.505L123.965 277.677L123.861 145.843C123.857 138.28 129.983 132.144 137.545 132.137L328.573 131.989C336.137 131.983 342.272 138.109 342.279 145.672L342.381 277.505" fill="#4B5BB2"/>
<path d="M330.997 266.125L135.331 266.279L135.235 143.528L330.903 143.376L330.997 266.125Z" fill="#3C347A"/>
<path d="M330.997 266.125L135.331 266.279L135.321 254.544L330.988 254.392L330.997 266.125Z" fill="#2A254B"/>
<path d="M330.907 149.2L135.24 149.355L135.235 143.528L330.903 143.376L330.907 149.2Z" fill="#2A254B"/>
<path d="M135.331 266.279L135.287 208.785L194.671 149.307L252.305 149.263L147.197 254.535L135.321 254.544L135.331 266.279" fill="#3D398A"/>
<path d="M135.331 266.279L135.321 254.544L147.197 254.535L135.472 266.279H135.331" fill="#332E66"/>
<path d="M194.671 149.307L200.491 143.477L258.125 143.433L252.305 149.263L194.671 149.307Z" fill="#332E66"/>
<path d="M160.595 266.264L160.6 266.259L186.951 266.239L160.595 266.264ZM310.54 143.392L312.141 143.391L310.54 143.392Z" fill="#4B5BB2"/>
<path d="M172.325 254.516L277.435 149.243L306.321 149.22L201.213 254.493L172.325 254.516" fill="#3D398A"/>
<path d="M160.6 266.259L172.325 254.516L201.213 254.493L189.489 266.236L186.951 266.239L160.6 266.259" fill="#332E66"/>
<path d="M277.435 149.243L283.249 143.419L310.54 143.392L312.141 143.391L306.321 149.22L277.435 149.243" fill="#332E66"/>
<path d="M306.971 266.144L307.983 266.143L306.971 266.144ZM330.98 243.111L330.945 199.529L330.947 199.528L330.98 243.109V243.111Z" fill="#4B5BB2"/>
<path d="M274.069 254.436L330.947 199.528L330.98 243.111L319.707 254.4L274.069 254.436Z" fill="#3D398A"/>
<path d="M261.915 266.171L274.069 254.436L319.707 254.4L307.983 266.143L306.971 266.144L261.915 266.171" fill="#332E66"/>
<path d="M342.381 220.004H123.861V195.881H342.381V220.004Z" fill="#E1C11E"/>
<path d="M151.124 228.467H132.321L148.505 191.445H167.307L151.124 228.467Z" fill="white"/>
<path d="M191.219 228.467H172.417L188.601 191.445H207.403L191.219 228.467Z" fill="white"/>
<path d="M231.314 228.467H212.513L228.696 191.445H247.499L231.314 228.467Z" fill="white"/>
<path d="M271.412 228.467H252.609L268.793 191.445H287.595L271.412 228.467Z" fill="white"/>
<path d="M311.507 228.467H292.704L308.889 191.445H327.691L311.507 228.467Z" fill="white"/>
<path d="M106.316 154.232L102.044 154.396L99.544 153.603C98.396 153.239 97.1427 153.675 96.4707 154.675L96.156 155.141L108.643 162.04L111.059 156.86L106.316 154.232" fill="#262040"/>
<path d="M108.647 162.148L96.0613 155.196L96.5013 154.4C96.588 154.244 96.7866 154.187 96.9426 154.272L109.245 161.068L108.647 162.148" fill="#262040"/>
<path d="M111.059 156.86L114.357 151.151L111.059 145.257L106.316 154.232L111.059 156.86Z" fill="#E25E68"/>
<path d="M136.907 124.019C136.907 124.019 119.109 118.912 117.396 123.717C115.683 128.523 105.3 149.781 105.3 149.781L113.049 153.824L124.672 133.636L140.311 132.276L136.907 124.019" fill="#262040"/>
<path d="M122.439 160.711L118.955 162.931L116.384 163.449C115.201 163.688 114.319 164.677 114.215 165.877L114.165 166.439L128.432 166.416L128.032 160.716L122.439 160.711Z" fill="#262040"/>
<path d="M128.488 166.511L114.109 166.532L114.108 165.623C114.108 165.443 114.253 165.297 114.433 165.297L128.487 165.275L128.488 166.511" fill="#262040"/>
<path d="M128.032 160.716L128.488 151.151L122.805 150.511L122.439 160.711L128.032 160.716Z" fill="#E25E68"/>
<path d="M139.309 123.201L122.536 123.967C122.536 123.967 120.124 124.099 120.285 129.745C120.448 135.392 120.432 158.116 120.432 158.116L128.488 158.395L130.029 134.592L146.82 134.385C150.36 134.341 153.652 132.312 155.052 129.061C155.588 127.819 155.845 126.424 155.515 124.959L139.309 123.201" fill="#342E66"/>
<path d="M123.392 119.819C123.396 121.411 122.316 121.652 120.724 121.655C119.133 121.659 117.631 121.423 117.628 119.831C117.624 118.239 118.913 116.945 120.504 116.943C122.095 116.939 123.389 118.227 123.392 119.819" fill="#D6968E"/>
<path d="M125.417 121.445L122.084 121.452C121.215 121.455 120.501 120.744 120.5 119.873C120.497 119.003 121.208 118.289 122.08 118.288L125.411 118.281C126.28 118.28 126.993 118.991 126.995 119.86C126.996 120.731 126.287 121.444 125.417 121.445Z" fill="#D6968E"/>
<path d="M125.288 121.784L124.177 116.332L137.871 114.84L140.611 98.8399C140.887 97.3853 142.992 95.5813 144.447 95.8573L144.028 95.7386C145.481 96.0146 146.817 97.7039 146.541 99.1586L143.876 118.3C143.68 119.332 142.899 120.155 141.876 120.404L125.288 121.784" fill="#BAACDD"/>
<path d="M152.644 96.2106C152.927 96.2333 153.204 96.2973 153.469 96.4L153.605 96.4533C155.957 97.3719 157.548 99.8946 157.655 102.257L155.515 124.959C141.324 124.836 139.309 123.201 139.309 123.201L140.437 99.9786C140.609 97.7893 141.615 95.7279 144.109 95.5213L152.644 96.2106" fill="#CCC0E5"/>
<path d="M137.019 121.604C137.128 123.192 136.068 123.504 134.479 123.612C132.891 123.721 131.376 123.587 131.268 121.999C131.159 120.411 132.359 119.035 133.945 118.925C135.533 118.817 136.911 120.016 137.019 121.604Z" fill="#E25E68"/>
<path d="M139.147 123.092L135.823 123.321C134.956 123.38 134.196 122.719 134.137 121.851C134.077 120.983 134.739 120.223 135.607 120.164L138.929 119.936C139.799 119.876 140.557 120.537 140.617 121.405C140.676 122.273 140.015 123.033 139.147 123.092" fill="#E25E68"/>
<path d="M139.04 123.439L137.571 118.072L152.493 115.673L151.644 101.796C151.824 100.327 153.435 98.6746 154.904 98.8533C156.373 99.0319 157.819 100.629 157.64 102.099L158.715 118.725C158.588 119.769 157.863 120.643 156.861 120.959L139.04 123.439" fill="#CCC0E5"/>
<path d="M113.219 105.001L129.503 106.536C130.037 106.587 130.465 107.005 130.528 107.539L132.237 122.212C132.32 122.932 131.719 123.547 130.997 123.479L114.444 121.917C113.901 121.867 113.471 121.437 113.417 120.895L111.977 106.247C111.908 105.533 112.507 104.933 113.219 105.001Z" fill="#19181F"/>
<path d="M112.281 104.912L128.565 106.448C129.1 106.499 129.528 106.916 129.589 107.451L131.299 122.124C131.383 122.844 130.781 123.459 130.06 123.391L113.505 121.829C112.963 121.777 112.532 121.349 112.479 120.805L111.04 106.159C110.971 105.445 111.568 104.845 112.281 104.912" fill="#242837"/>
<path d="M131.785 122.313L142.911 123.363C143.251 123.395 143.499 123.696 143.468 124.035C143.435 124.375 143.135 124.623 142.796 124.591L130.997 123.521L131.785 122.313" fill="#19181F"/>
<path d="M121.615 113.815C121.523 114.793 120.652 115.513 119.673 115.421C118.693 115.328 117.973 114.46 118.067 113.48C118.157 112.5 119.028 111.78 120.008 111.873C120.987 111.965 121.707 112.835 121.615 113.815Z" fill="white"/>
<path d="M151.127 104.996L151.493 115.429L137.571 118.072L149.84 114.24L151.127 104.996" fill="#BAACDD"/>
<path d="M143.743 94.8267L144.672 97.324C145.008 98.224 145.841 98.8454 146.8 98.9107C148.621 99.0334 149.931 97.1907 149.216 95.5107L147.584 91.6747L143.743 94.8267Z" fill="#E25E68"/>
<path d="M144.571 97.0507C144.571 97.0507 149.156 96.184 148.481 92.1746C147.808 88.1653 143.496 91.2933 143.496 91.2933L143.917 95.296L144.571 97.0507" fill="#D84A55"/>
<path d="M137.496 85.0534C135.813 88.652 137.367 92.9347 140.967 94.616C144.565 96.3 148.847 94.7454 150.529 91.1467C152.212 87.548 150.659 83.2667 147.06 81.5827C143.461 79.9014 139.18 81.4547 137.496 85.0534Z" fill="#E25E68"/>
<path d="M146.681 89.5187C146.681 89.5187 145.548 95.28 149.784 95.4066C154.02 95.532 151.713 84.5973 151.713 84.5973L145.011 77.852L134.752 80.376L135.771 87.008C135.771 87.008 137.403 87.8733 146.22 86.42L146.681 89.5187" fill="#342E66"/>
<path d="M142.495 85.0094L145.863 89.9374L148.768 86.7281L142.495 85.0094Z" fill="#342E66"/>
<path d="M145.548 88.1813C145.073 89.1973 145.512 90.408 146.529 90.884C147.547 91.36 148.757 90.92 149.233 89.904C149.708 88.8853 149.269 87.676 148.252 87.2C147.235 86.724 146.025 87.1626 145.548 88.1813Z" fill="#E25E68"/>
<path d="M136.097 86.9C136.097 86.9 134.543 81.2293 138.219 77.72C141.251 74.8267 146.207 75.0134 148.897 78.2267C150.161 79.736 151.177 82.008 151.271 85.424L136.097 86.9" fill="#E1C11E"/>
<path d="M137.065 86.8027L137.021 83.2627V83.244C137.021 82.456 137.641 81.804 138.431 81.7667L138.501 81.7653C139.257 81.7653 139.897 82.3373 139.973 83.0973L140.327 86.6293L140.699 86.592L140.345 83.06C140.249 82.108 139.448 81.392 138.501 81.392L138.413 81.3947C137.425 81.44 136.648 82.256 136.648 83.244V83.268L136.692 86.8066L137.065 86.8027" fill="#E3981F"/>
<path d="M151.2 84.68L134.692 86.264C134.281 86.304 133.98 86.668 134.018 87.0787C134.058 87.4894 134.424 87.7907 134.834 87.752L151.342 86.168C151.753 86.128 152.053 85.7627 152.014 85.352C151.974 84.9414 151.61 84.64 151.2 84.68" fill="white"/>
<path d="M301.563 276.696L305.263 280.281L301.045 282.551L297.431 279.011L301.563 276.696" fill="#E25E68"/>
<path d="M275.516 249.917L277.988 260.86C278.484 263.052 279.436 265.157 280.805 267.087L297.083 281.711L303.52 276.467L289.621 261.749L284.529 242.343L275.516 249.917" fill="#262040"/>
<path d="M300.921 282.447L299.588 286.7L298.065 288.819C297.364 289.793 297.391 291.112 298.128 292.059L298.472 292.501L308.86 282.824L304.707 278.939L300.921 282.447Z" fill="#262040"/>
<path d="M308.964 282.855L298.496 292.607L297.657 291.708L308.125 281.955L308.964 282.855Z" fill="#262040"/>
<path d="M265.972 283.353L264.584 287.988L259.816 286.709L261.209 282.159L265.972 283.353Z" fill="#E25E68"/>
<path d="M272.361 237.711L259.011 282.844L267.435 284.947L274.951 262.321L284.184 247.519C284.652 246.857 285.113 246.165 285.503 245.451C286.243 244.096 286.575 242.619 286.559 241.137L286.527 238.201L272.361 237.711" fill="#342E66"/>
<path d="M260.092 286.264L255.879 287.82L253.251 287.911C252.044 287.952 251.008 288.785 250.708 289.956L250.568 290.503L264.679 292.824L265.22 287.121L260.092 286.264Z" fill="#262040"/>
<path d="M264.718 292.925L250.497 290.585L250.697 289.364L264.92 291.703L264.718 292.925Z" fill="#262040"/>
<path d="M253.727 191.869L248.331 200.289L250.917 202.145L256.501 193.237L253.727 191.869" fill="#3C48A5"/>
<path d="M246.719 177.916C246.719 177.916 249.212 188.353 261.848 192.461C262.212 192.579 262.489 192.885 262.54 193.265C262.701 194.473 262.703 197.085 259.909 197.86C259.644 197.933 259.351 197.88 259.119 197.735C257.187 196.524 247.681 190.967 238.455 192.571L246.719 177.916" fill="#4255AE"/>
<path d="M246.719 177.916C246.719 177.916 244.403 188.327 238.455 192.571C238.455 192.571 239.293 183.444 246.719 177.916Z" fill="#3C48A5"/>
<path d="M246.572 199.743C246.181 201.657 247.757 203.995 249.673 204.387C251.588 204.779 253.459 203.543 253.851 201.628C254.243 199.712 252.664 197.373 250.749 196.983C248.833 196.591 246.964 197.827 246.572 199.743" fill="#E25E68"/>
<path d="M256.711 205.365L252.969 201.457L250.527 204.464L256.711 208.997" fill="#E25E68"/>
<path d="M256.116 201.751L252.161 207.631L262.973 217.527C263.634 217.716 264.322 217.781 265.006 217.724L279.282 215.873C281.532 215.767 283.269 213.856 283.162 211.607C283.056 209.356 283.486 206.101 281.238 206.208L264.65 209.615L256.116 201.751" fill="#BAACDD"/>
<path d="M288.135 215.241C288.516 212.123 287.1 209.035 284.455 207.34C283.265 206.579 282.087 206.064 281.239 206.208C278.391 206.689 275.464 207.979 274.209 211.823C272.08 218.359 271.471 237.681 271.471 237.681L286.775 238.201L288.135 215.241" fill="#CCC0E5"/>
<path d="M282.485 215.728L287.087 232.637L288.017 218.292L282.485 215.728Z" fill="#BAACDD"/>
<path d="M301.242 249.096C302.689 247.78 302.794 244.963 301.478 243.516C300.164 242.069 297.924 241.964 296.478 243.279C295.03 244.593 294.925 247.412 296.241 248.857C297.556 250.304 299.794 250.412 301.242 249.096" fill="#E25E68"/>
<path d="M294.299 237.051L297.088 243.936L300.836 242.951L298.519 235.64" fill="#E25E68"/>
<path d="M294.476 242.363L302.139 240.679L296.943 222.904C296.751 222.245 296.439 221.627 296.027 221.079L286.484 209.201C285.195 207.356 283.023 207.685 281.175 208.973C279.328 210.263 278.876 212.804 280.164 214.652L289.354 225.7L294.476 242.363" fill="#CCC0E5"/>
<path d="M277.655 203.883L277.945 206.563C278.051 207.528 278.712 208.345 279.637 208.647C281.391 209.221 283.135 207.743 282.852 205.916L282.207 201.748L277.655 203.883" fill="#E25E68"/>
<path d="M277.915 206.269C277.915 206.269 282.64 206.115 282.979 202.017C283.316 197.919 278.295 200.357 278.295 200.357L277.709 204.385L277.915 206.269" fill="#D84A55"/>
<path d="M273.966 192.747C271.42 195.856 271.877 200.44 274.986 202.985C278.094 205.531 282.68 205.076 285.225 201.967C287.77 198.856 287.314 194.273 284.205 191.728C281.096 189.181 276.513 189.637 273.966 192.747" fill="#E25E68"/>
<path d="M281.859 199.411C281.859 199.411 279.312 204.777 283.433 205.956C287.553 207.133 288.019 195.84 288.019 195.84L283.127 187.559L272.441 187.477L271.788 194.233C271.788 194.233 273.172 195.488 282.177 196.259L281.859 199.411" fill="#342E66"/>
<path d="M278.877 193.948L280.953 199.619L284.6 197.195L278.877 193.948Z" fill="#342E66"/>
<path d="M281.081 197.817C280.361 198.696 280.491 199.993 281.369 200.712C282.249 201.432 283.544 201.303 284.264 200.424C284.984 199.545 284.855 198.249 283.975 197.529C283.096 196.809 281.801 196.939 281.081 197.817Z" fill="#E25E68"/>
<path d="M272.092 194.832C272.092 194.832 271.736 188.897 276.105 186.189C279.709 183.959 284.576 185.179 286.569 188.919C287.505 190.676 288.036 193.136 287.417 196.536L272.092 194.832" fill="#E1C11E"/>
<path d="M273.069 194.939L273.765 191.425C273.904 190.716 274.528 190.22 275.231 190.22L275.472 190.24C276.204 190.357 276.729 190.991 276.729 191.717L276.721 191.879L276.335 195.447L276.709 195.488L277.096 191.919L277.107 191.717C277.107 190.807 276.449 190.016 275.533 189.867L275.231 189.843C274.349 189.843 273.569 190.463 273.395 191.352L272.699 194.865L273.069 194.939" fill="#E3981F"/>
<path d="M287.501 195.785L270.833 193.911C270.419 193.864 270.044 194.163 269.997 194.577C269.951 194.992 270.249 195.365 270.664 195.412L287.332 197.287C287.747 197.333 288.121 197.036 288.168 196.621C288.215 196.207 287.916 195.832 287.501 195.785" fill="white"/>
<path d="M387.909 238.417L370.664 255.419L373.144 257.933L390.389 240.932" fill="#3F4FAA"/>
<path d="M387.909 220.249L370.664 237.251L373.144 239.765L390.389 222.764" fill="#3F4FAA"/>
<path d="M387.909 202.081L370.664 219.083L373.144 221.597L390.389 204.596" fill="#3F4FAA"/>
<path d="M387.909 183.913L370.664 200.915L373.144 203.429L390.389 186.428" fill="#3F4FAA"/>
<path d="M387.909 165.745L370.664 182.747L373.144 185.261L390.389 168.26" fill="#3F4FAA"/>
<path d="M387.909 147.577L370.664 164.579L373.144 167.093L390.389 150.092" fill="#3F4FAA"/>
<path d="M387.909 129.409L370.664 146.411L373.144 148.925L390.389 131.924" fill="#3F4FAA"/>
<path d="M387.909 111.241L370.664 128.243L373.144 130.757L390.389 113.756" fill="#3F4FAA"/>
<path d="M387.909 93.0733L370.664 110.075L373.144 112.589L390.389 95.588" fill="#3F4FAA"/>
<path d="M387.909 74.9054L370.664 91.9067L373.144 94.4214L390.389 77.4201" fill="#3F4FAA"/>
<path d="M387.909 56.7373L370.664 73.7386L373.144 76.2533L390.389 59.252" fill="#3F4FAA"/>
<path d="M371.904 240.273H389.149V236.742H371.904V240.273Z" fill="#3F4FAA"/>
<path d="M371.904 222.105H389.149V218.573H371.904V222.105Z" fill="#3F4FAA"/>
<path d="M371.904 203.937H389.149V200.405H371.904V203.937Z" fill="#3F4FAA"/>
<path d="M371.904 185.769H389.149V182.237H371.904V185.769Z" fill="#3F4FAA"/>
<path d="M371.904 167.601H389.149V164.07H371.904V167.601Z" fill="#3F4FAA"/>
<path d="M371.904 149.433H389.149V145.901H371.904V149.433Z" fill="#3F4FAA"/>
<path d="M371.904 131.265H389.149V127.734H371.904V131.265Z" fill="#3F4FAA"/>
<path d="M371.904 113.097H389.149V109.566H371.904V113.097Z" fill="#3F4FAA"/>
<path d="M371.904 94.9293H389.149V91.397H371.904V94.9293Z" fill="#3F4FAA"/>
<path d="M371.904 76.7614H389.149V73.2306H371.904V76.7614Z" fill="#3F4FAA"/>
<path d="M370.137 261.599H373.669V60.9013H370.137V261.599Z" fill="#4B5BB2"/>
<path d="M387.384 261.599H390.916V60.9013H387.384V261.599Z" fill="#4B5BB2"/>
<path d="M397.357 292.357H363.013V256.676H397.357V292.357" fill="#342E66"/>
<path d="M389.196 60.9014H371.246C368.078 60.9014 365.512 58.3334 365.512 55.1667V32.652C365.512 29.4854 368.078 26.9174 371.246 26.9174H389.196C392.362 26.9174 394.93 29.4854 394.93 32.652V55.1667C394.93 58.3334 392.362 60.9014 389.196 60.9014Z" fill="#3F4FAA"/>
<path d="M379.747 51.0106H368.193V35.112H379.747C382.145 35.112 384.091 37.0573 384.091 39.4573V46.6653C384.091 49.0653 382.145 51.0106 379.747 51.0106" fill="#3947A4"/>
<path d="M256.761 63.224L270.557 103.3L273.284 102.363L259.488 62.2854" fill="#342E66"/>
<path d="M247.37 57.1373L220.468 93.4733L222.785 95.188L249.686 58.852" fill="#342E66"/>
<path d="M256.563 75.8239L284.361 112.176C287.42 116.176 286.657 121.897 282.657 124.957L246.305 152.755C242.305 155.813 236.584 155.051 233.525 151.052L205.725 114.699C202.667 110.699 203.429 104.977 207.429 101.919L243.783 74.1186C247.781 71.0599 253.504 71.8239 256.563 75.8239" fill="#E1C11E"/>
<path d="M254.469 82.6614L253.878 83.1134L276.624 112.856C277.556 114.076 278.004 115.507 278.005 116.931C278.004 118.953 277.097 120.948 275.368 122.272L245.624 145.017C244.404 145.949 242.975 146.399 241.549 146.399C239.527 146.397 237.532 145.492 236.208 143.761L213.464 114.019C212.531 112.799 212.082 111.368 212.081 109.944C212.082 107.92 212.989 105.925 214.719 104.603L244.463 81.8574C245.683 80.9254 247.113 80.476 248.537 80.476C250.561 80.476 252.554 81.3827 253.878 83.1134L254.469 82.6614L255.058 82.2107C253.445 80.1014 251.001 78.9894 248.537 78.9907C246.801 78.9907 245.045 79.5414 243.56 80.6774L213.817 103.423C211.706 105.036 210.596 107.479 210.597 109.944C210.596 111.68 211.148 113.436 212.284 114.92L235.028 144.663C236.641 146.773 239.085 147.884 241.549 147.884C243.287 147.884 245.041 147.332 246.527 146.196L276.27 123.452C278.38 121.839 279.49 119.395 279.489 116.931C279.49 115.195 278.939 113.439 277.803 111.955L255.058 82.2107L254.469 82.6614" fill="#342E66"/>
<path d="M250.925 96.8506L247.71 119.535L240.824 118.616C241.842 110.985 242.689 103.568 243.712 95.8893L250.925 96.8506ZM247.402 127.003C246.684 132.4 238.492 131.308 239.212 125.911C239.938 120.465 248.129 121.557 247.402 127.003Z" fill="#342E66"/>
<path d="M265.723 54.6C265.723 60.9693 260.559 66.1333 254.19 66.1333C247.819 66.1333 242.656 60.9693 242.656 54.6C242.656 48.2306 247.819 43.0666 254.19 43.0666C260.559 43.0666 265.723 48.2306 265.723 54.6Z" fill="#342E66"/>
<path d="M262.344 54.6C262.344 59.104 258.693 62.7546 254.189 62.7546C249.685 62.7546 246.033 59.104 246.033 54.6C246.033 50.096 249.685 46.4453 254.189 46.4453C258.693 46.4453 262.344 50.096 262.344 54.6Z" fill="#3E3885"/>
<path d="M297.649 26.9172H301.181V2.4703H297.649V26.9172Z" fill="#3F4FAA"/>
<path d="M275.727 26.9172H279.259V2.4703H275.727V26.9172Z" fill="#3F4FAA"/>
<path d="M319.5 26.9172H323.032V2.4703H319.5V26.9172Z" fill="#3F4FAA"/>
<path d="M343.779 26.9172H347.311V2.4703H343.779V26.9172Z" fill="#3F4FAA"/>
<path d="M366.427 26.9172H369.959V2.4703H366.427V26.9172Z" fill="#3F4FAA"/>
<path d="M389.907 26.9172H393.439V2.4703H389.907V26.9172Z" fill="#3F4FAA"/>
<path d="M412.972 26.9172H416.504V2.4703H412.972V26.9172Z" fill="#3F4FAA"/>
<path d="M277.635 28.1294L300.7 3.68272L298.131 1.26006L275.065 25.7054" fill="#3F4FAA"/>
<path d="M300.7 28.1294L323.764 3.68272L321.195 1.26006L298.131 25.7054" fill="#3F4FAA"/>
<path d="M323.764 28.1294L346.83 3.68272L344.26 1.26006L321.195 25.7054" fill="#3F4FAA"/>
<path d="M346.829 28.1294L369.892 3.68272L367.324 1.26006L344.26 25.7054" fill="#3F4FAA"/>
<path d="M369.892 28.1294L392.958 3.68272L390.39 1.26006L367.324 25.7054" fill="#3F4FAA"/>
<path d="M392.957 28.1294L416.022 3.68272L413.453 1.26006L390.389 25.7054" fill="#3F4FAA"/>
<path d="M254.19 26.9173V28.684H442.24C442.959 28.684 443.608 28.2466 443.878 27.5786C444.147 26.912 443.984 26.1466 443.467 25.648L418.145 1.20131C417.816 0.882645 417.378 0.705283 416.919 0.705283H273.642C273.106 0.705283 272.594 0.95195 272.26 1.37195L252.807 25.8186C252.387 26.3466 252.304 27.076 252.599 27.6853C252.892 28.2933 253.514 28.684 254.19 28.684V26.9173L255.571 28.0173L274.494 4.23728H416.206L437.868 25.152H254.19V26.9173L255.571 28.0173L254.19 26.9173Z" fill="#4B5BB2"/>
<path d="M252.423 26.9174V54.6C252.423 55.576 253.214 56.3667 254.19 56.3667C255.164 56.3667 255.955 55.576 255.955 54.6V26.9174C255.955 25.9427 255.164 25.152 254.19 25.152C253.214 25.152 252.423 25.9427 252.423 26.9174Z" fill="#4B5BB2"/>
<path d="M154.769 289.055L167.932 255.033C168.56 253.412 170.856 253.412 171.483 255.033L184.645 289.055H154.769" fill="#E1C11E"/>
<path d="M181.191 269.569H157.819V262.349H181.191V269.569Z" fill="#F8F7F7"/>
<path d="M182.976 283.216H156.541V275.995H182.976V283.216Z" fill="#F8F7F7"/>
<path d="M187.203 291.921H152.363V289.055H187.203V291.921Z" fill="#D3B520"/>
<path d="M345.912 289.16L359.076 255.139C359.703 253.517 361.997 253.517 362.625 255.139L375.789 289.16H345.912" fill="#E1C11E"/>
<path d="M372.333 269.675H348.961V262.455H372.333V269.675Z" fill="#F8F7F7"/>
<path d="M374.119 283.32H347.686V276.1H374.119V283.32Z" fill="#F8F7F7"/>
<path d="M378.346 292.027H343.507V289.16H378.346V292.027Z" fill="#D3B520"/>
<path d="M110.609 232.191C110.609 247.289 98.3706 259.528 83.2733 259.528C68.1759 259.528 55.9373 247.289 55.9373 232.191C55.9373 217.095 68.1759 204.856 83.2733 204.856C98.3706 204.856 110.609 217.095 110.609 232.191Z" fill="#4B5BB2"/>
<path d="M82.5161 222.448V291.921C82.5161 292.34 82.8548 292.68 83.2734 292.68C83.6921 292.68 84.0308 292.34 84.0308 291.921V222.448C84.0308 222.029 83.6921 221.691 83.2734 221.691C82.8548 221.691 82.5161 222.029 82.5161 222.448Z" fill="#3F4FAA"/>
<path d="M72.0774 224.368L82.708 236.289C82.9867 236.601 83.4654 236.629 83.7774 236.351C84.0907 236.072 84.1173 235.593 83.8387 235.281L73.2094 223.359C72.9307 223.047 72.4507 223.019 72.1387 223.297C71.8267 223.576 71.7987 224.055 72.0774 224.368Z" fill="#3F4FAA"/>
<path d="M92.1666 234.593C91.7693 234.991 89.4226 237.427 87.1559 239.781C84.8946 242.133 82.7266 244.391 82.7266 244.391C82.4373 244.692 82.4466 245.172 82.748 245.461C83.0506 245.752 83.5306 245.741 83.8199 245.44C83.8213 245.439 84.3613 244.876 85.1866 244.019C87.6559 241.448 92.6866 236.216 93.2373 235.665C93.5346 235.369 93.5346 234.889 93.2386 234.593C92.9426 234.297 92.4626 234.297 92.1666 234.593" fill="#3F4FAA"/>
<path d="M0.991943 293.349H459.528C459.945 293.349 460.285 293.009 460.285 292.591C460.285 292.172 459.945 291.833 459.528 291.833H0.991943C0.573277 291.833 0.234619 292.172 0.234619 292.591C0.234619 293.009 0.573277 293.349 0.991943 293.349Z" fill="#3F4FAA"/>
</svg>
