<svg width="194" height="225" viewBox="0 0 194 225" fill="none" xmlns="http://www.w3.org/2000/svg">
<path d="M131.81 34.1876L122.801 51.279L118.182 49.5985L119.682 54.1603L110.649 81.3671C110.649 81.3671 105.654 46.7971 131.81 34.1876Z" fill="#233862"/>
<path d="M116.782 49.2992C116.782 49.2992 106.821 86.0232 105.861 121.065C105.861 121.065 114.122 123.946 127.103 121.665C140.149 119.374 116.782 49.2992 116.782 49.2992Z" fill="#233862"/>
<path d="M69.0822 100.221C71.7565 100.172 75.5212 100.502 76.763 99.1411C78.173 97.6 79.837 97.8254 79.837 97.8254L79.5009 96.063L79.0972 93.9582C79.0972 93.9582 78.9456 93.7656 78.3964 93.7717C78.3964 93.7717 76.4597 93.8558 75.5355 93.5258C73.2833 92.7204 64.3257 98.0877 64.6269 99.5776C64.7417 100.135 67.9448 100.244 69.0822 100.221Z" fill="#E2915A"/>
<path d="M117.905 48.5779C117.905 48.5779 102.773 79.8342 98.0903 83.189C93.4076 86.5437 76.7138 93.7984 76.7138 93.7984C76.7138 93.7984 76.2773 94.8374 76.683 96.36C77.1052 97.9442 77.9372 98.393 77.9372 98.393C77.9372 98.393 101.277 96.3088 106.704 92.9315C112.128 89.5542 124.094 76.0922 124.094 76.0922L117.905 48.5779Z" fill="#233862"/>
<path d="M162.195 223.82H171.153C172.28 223.209 173.284 221.807 173.602 219.717C174.038 216.832 177.272 215.258 177.973 212.899C178.67 210.54 175.088 207.218 175.088 207.218L174.487 206.446L173.864 205.644L167.919 207.044C167.919 207.044 167.772 208.458 167.683 210.262C167.618 211.563 167.585 213.067 167.657 214.385C167.833 217.532 166.778 220.92 163.982 221.533C161.915 221.986 162.007 223.211 162.195 223.82Z" fill="#233862"/>
<path d="M110.22 223.82H130.701C131.687 222.619 131.324 218.182 131.175 216.735C131.144 216.442 131.123 216.272 131.123 216.272C131.123 216.272 124.129 210.678 123.168 214.963C123.139 215.096 123.104 215.227 123.066 215.358C121.854 219.365 116.426 221.184 113.29 221.693C111.253 222.022 110.499 223.082 110.22 223.82Z" fill="#233862"/>
<path d="M114.122 109.498C114.122 109.498 115.186 122.747 116.434 138.674C118.131 160.309 120.17 186.885 120.373 191.92C120.721 200.663 122.121 214.647 122.121 214.647C122.121 214.647 125.441 217.969 132.085 216.569C132.085 216.569 138.005 196.607 139.698 175.484C139.725 175.138 139.749 174.79 139.776 174.441C141.35 152.94 143.797 107.662 143.797 107.662L114.122 109.498Z" fill="#F99746"/>
<path d="M114.122 109.498C114.122 109.498 115.186 122.747 116.434 138.675L139.698 175.485C139.725 175.138 139.749 174.79 139.776 174.441C141.35 152.94 143.797 107.662 143.797 107.662L114.122 109.498Z" fill="#ED7D2B"/>
<path d="M118.973 111.07C118.973 111.07 138.116 159.057 150.701 181.608C163.288 204.159 167.22 210.452 167.22 210.452C167.22 210.452 174.432 207.567 175.088 205.602C175.088 205.602 170.274 162.066 161.845 151.452C157.082 145.456 151.488 127.459 151.225 121.167C150.963 114.874 149.52 102.418 149.52 102.418L118.973 111.07Z" fill="#F99746"/>
<path d="M123.738 41.1183C131.218 43.4771 144.161 37.1078 144.161 37.1078C144.161 37.1078 137.263 31.9312 137.626 21.1703L131.843 25.8304L127.912 28.9966C127.912 28.9966 127.928 30.8635 128.359 34.1342C128.437 34.7306 128.529 35.3741 128.638 36.0626C128.724 36.6098 128.482 37.1652 128.008 37.4562C125.283 39.1428 123.738 41.1183 123.738 41.1183Z" fill="#FFB27D"/>
<path d="M113.299 110.601C113.524 110.787 113.784 110.9 114.083 110.9C116.893 110.863 125.084 112.423 132.015 111.711C137.858 111.15 143.03 109.418 148.584 106.93C149.322 106.598 151.018 105.693 150.98 104.869C150.955 103.967 150.865 102.657 150.752 101.008C150.361 95.2758 149.674 85.4165 150.342 74.0407C150.463 71.9238 150.527 69.8212 150.533 67.7534C150.59 52.3363 147.535 38.7759 141.391 34.1875C141.391 34.1875 137.108 36.5893 134.144 37.5381C131.238 38.4665 129.742 38.28 128.236 37.2799C128.236 37.2799 125.303 38.737 124.049 40.1039C121.145 43.2681 118.881 47.4692 117.383 53.4983C116.108 58.6298 114.913 66.1119 114.501 75.7007C114.315 80.0473 113.11 110.451 113.299 110.601Z" fill="white"/>
<path d="M149.625 59.6606L141.39 34.1875C141.39 34.1875 121.623 41.643 120.707 69.5569C120.348 75.9159 118.821 101.983 121.582 123.585C121.582 123.585 136.984 129.586 155.865 117.745L149.625 59.6606Z" fill="#2B478B"/>
<path d="M127.913 28.9966C127.913 28.9966 127.929 30.8635 128.359 34.1342C132.712 33.3862 137.651 26.3509 137.651 26.3509C135.433 25.7115 133.493 25.5947 131.843 25.8303L127.913 28.9966Z" fill="#ED975D"/>
<path d="M124.672 28.7957C124.672 28.7957 138.146 31.0356 139.411 22.6231C140.675 14.2107 143.266 8.83532 134.718 7.05036C126.168 5.2654 124.01 8.22255 122.906 10.9277C121.801 13.6328 121.201 27.9985 124.672 28.7957Z" fill="#FFB27D"/>
<path d="M183.791 137.615L156.283 141.533C152.703 142.044 149.356 139.533 148.846 135.953L147.147 124.032C146.639 120.452 149.149 117.105 152.73 116.595L180.237 112.675C183.818 112.165 187.164 114.677 187.674 118.257L189.373 130.178C189.884 133.758 187.371 137.105 183.791 137.615Z" fill="#233862"/>
<path d="M173.03 113.669L163.204 115.07L162.837 112.496C162.775 112.054 163.085 111.642 163.528 111.578L165.995 111.226L170.522 110.58L171.743 110.406C171.827 110.396 171.909 110.398 171.987 110.41C172.329 110.466 172.612 110.738 172.663 111.097L173.03 113.669ZM150.772 123.508L152.492 135.566C152.826 137.9 154.359 139.783 156.377 140.673C157.045 140.97 157.769 141.158 158.521 141.214C158.521 141.214 158.521 141.214 158.523 141.214H158.525C158.992 141.253 159.474 141.238 159.958 141.169L187.417 137.254C191.009 136.742 193.53 133.385 193.018 129.791L191.302 117.73C190.788 114.138 187.429 111.617 183.836 112.13L174.381 113.478L174.014 110.904C173.846 109.716 172.739 108.888 171.553 109.056L170.516 109.203L164.763 110.023L163.335 110.228C162.761 110.308 162.251 110.611 161.9 111.076C161.552 111.544 161.404 112.115 161.486 112.689L161.853 115.263L156.375 116.042C156.158 116.073 155.947 116.114 155.74 116.165C155.738 116.167 155.736 116.167 155.736 116.167H155.734C153.617 116.685 151.949 118.212 151.176 120.147V120.149C150.764 121.182 150.606 122.331 150.772 123.508Z" fill="#2B478B"/>
<path d="M162.874 102.119C162.874 102.119 164.319 104.043 164.376 104.812C164.763 110.023 162.382 110.744 168.549 113.638C168.549 113.638 171.18 114.642 171.225 112.599C171.27 110.556 169.399 110.523 169.741 107.662C170.135 104.363 170.096 104.332 167.93 102.609L166.495 100.238L162.874 102.119Z" fill="#FFB27D"/>
<path d="M166.548 103.594C164.224 104.045 161.708 103.863 161.708 103.863C161.708 103.863 154.812 82.5619 153.924 80.6171C153.037 78.6702 133.443 55.6399 133.443 55.6399L141.391 34.1875C141.391 34.1875 146.053 36.9152 150.981 45.4178C157.068 55.9227 163.761 72.8378 164.95 75.586C168.507 83.8058 169.741 102.235 169.741 102.235C169.741 102.235 168.372 103.238 166.548 103.594Z" fill="#2B478B"/>
<path d="M139.421 21.8137C139.421 21.8137 138.04 21.5821 138.263 19.6783C138.485 17.7744 138.482 15.2845 136.933 15.7477C135.386 16.2129 135.308 17.4527 134.673 16.7272C134.035 16.0038 134.025 12.9544 129.418 12.7413C124.812 12.5302 122.938 14.1328 120.797 13.1922C118.653 12.2495 118.541 9.00745 118.541 9.00745C118.541 9.00745 119.149 10.1653 120.071 10.5321C120.071 10.5321 116.495 5.64451 120.635 2.29182C124.773 -1.06087 128.992 1.13394 131.388 1.27945C136.663 1.59914 140.071 1.91474 141.794 5.38219C143.518 8.84965 142.807 18.4753 139.421 21.8137Z" fill="#2B478B"/>
<path d="M165.152 104.41C165.152 104.41 163.761 105.861 163.673 106.463C163.392 108.4 162.745 109.236 163.068 109.447C163.743 109.886 164.634 108.451 165.06 107.164C165.487 105.879 165.152 104.41 165.152 104.41Z" fill="#FFB27D"/>
<path d="M141.391 34.1876L132.384 51.279L127.763 49.5985L129.263 54.1603L120.231 81.3671C120.231 81.3671 115.235 46.7971 141.391 34.1876Z" fill="#233862"/>
<path d="M123.738 24.0229C123.738 24.0229 124.262 25.4102 125.574 25.4471C126.885 25.484 127.898 24.2094 127.898 24.2094C127.898 24.2094 125.051 23.5516 123.738 24.0229Z" fill="white"/>
<path d="M53.4397 152.975L80.7943 146.638C84.354 145.812 86.5939 142.224 85.768 138.664L83.0219 126.809C82.196 123.249 78.6076 121.011 75.0479 121.837L47.6933 128.174C44.1316 129 41.8937 132.588 42.7196 136.148L45.4657 148.003C46.2916 151.563 49.8779 153.801 53.4397 152.975Z" fill="#F99746"/>
<path d="M54.2553 123.926C54.1733 123.567 54.3393 123.208 54.6426 123.032C54.7123 122.991 54.7881 122.958 54.8721 122.94L56.0854 122.657L60.5877 121.616L63.0408 121.046C63.4834 120.944 63.9261 121.22 64.0265 121.661L64.6208 124.219L54.8496 126.481L54.2553 123.926ZM77.8083 124.62V124.618C76.3737 123.077 74.2445 122.245 72.0619 122.528L72.0599 122.53C72.0578 122.53 72.0558 122.53 72.0538 122.53C71.8406 122.557 71.6275 122.595 71.4103 122.645L65.9631 123.907L65.3709 121.35C65.2397 120.78 64.8913 120.292 64.3913 119.981C63.8913 119.669 63.301 119.571 62.7313 119.704L61.3091 120.032L55.5894 121.358L54.5586 121.595C53.3782 121.87 52.6363 123.055 52.913 124.237L53.5052 126.795L44.1029 128.973C40.5289 129.801 38.2828 133.402 39.1107 136.976L41.8896 148.968C42.7176 152.54 46.3182 154.786 49.8923 153.958L77.1996 147.634C77.6812 147.521 78.1382 147.36 78.5645 147.155L78.5665 147.153C78.5686 147.153 78.5686 147.153 78.5706 147.153C79.2572 146.825 79.8699 146.384 80.3925 145.859C81.9705 144.284 82.7287 141.951 82.1918 139.63L79.4129 127.637C79.1424 126.469 78.5747 125.442 77.8083 124.62Z" fill="#ED7D2B"/>
<path d="M59.8683 109.191C59.8683 109.191 59.0424 112.119 59.3273 113.054C61.2475 119.38 64.5715 123.52 55.6385 122.452C55.6385 122.452 56.0074 122.085 54.2983 118.866C52.3247 115.152 52.3596 115.099 54.1261 112.076L54.7368 108.625L59.8683 109.191Z" fill="#FFB27D"/>
<path d="M71.1068 101.658C68.4099 101.494 65.1249 100.787 63.926 99.3622C62.5673 97.7453 61.2127 97.3108 61.2127 97.3108L61.6267 95.5442L62.1226 93.4354C62.1226 93.4354 62.2825 93.2489 62.8358 93.2797C62.8358 93.2797 64.9507 93.7572 65.7376 93.1506C66.5204 92.5439 67.957 92.9128 68.8423 93.501C69.9653 94.247 71.4839 94.1261 71.447 94.4929C71.447 94.4929 69.2173 95.5873 69.4243 95.7738C71.4675 97.5854 76.8428 98.3068 76.4944 99.7209C76.3551 100.278 72.2565 101.727 71.1068 101.658Z" fill="#FFB27D"/>
<path d="M33.5263 32.7592L33.5181 34.2245C33.5181 34.2245 33.9157 38.8088 28.2718 39.4789C22.6259 40.149 17.9965 40.0609 18.1482 36.5238C18.6584 33.7839 19.5683 29.5315 19.6073 27.265C19.6196 26.4227 19.5622 25.5292 19.4064 24.521L30.3457 24.3017L33.5673 24.8284L33.5263 32.7592Z" fill="#FFB27D"/>
<path d="M33.5672 24.8282L33.5262 32.7591C32.3622 33.2981 31.0527 33.628 29.5813 33.628C24.5543 33.628 21.3041 29.9413 19.6073 27.2648C19.6196 26.4226 19.5622 25.5291 19.4065 24.5208L30.3456 24.3015L33.5672 24.8282Z" fill="#E2915A"/>
<path d="M18.5683 22.7605C19.8368 29.5909 28.651 29.3675 32.4607 28.9371C33.5325 28.8183 34.2067 28.681 34.2067 28.681C35.4158 28.3592 36.09 26.4554 36.4015 23.9614C37.0245 19.0266 36.2396 11.7822 35.4056 9.92964C34.1514 7.14051 31.7865 4.12594 22.9108 6.30027C14.0332 8.4787 16.9391 14.0078 18.5683 22.7605Z" fill="#FFB27D"/>
<path d="M11.3546 225H23.8452C23.7509 224.347 23.4333 222.353 22.8492 220.519C22.6464 219.879 22.4107 219.258 22.1422 218.719C20.927 216.293 13.2113 217.836 13.2113 217.836C13.2113 217.836 12.4941 218.451 11.9346 220.795C11.6866 221.828 11.4694 223.199 11.3546 225Z" fill="#233862"/>
<path d="M49.0971 221.059C49.1319 222.758 49.3451 224.367 49.9619 225H74.6664C74.3528 224.107 73.4634 222.762 70.9264 222.35C68.045 221.885 63.553 220.498 60.9298 217.725C59.9953 216.739 59.2986 215.577 58.9953 214.219C57.8313 209.044 49.384 215.805 49.384 215.805C49.384 215.805 49.0438 218.531 49.0971 221.059Z" fill="#233862"/>
<path d="M32.6657 165.121C33.0099 167.017 33.2292 168.57 33.2866 169.685C34.0715 185.004 46.181 220.031 48.3471 220.846C51.6978 222.111 56.9769 219.424 59.7373 218.543C60.8808 218.178 61.6534 217.024 61.3993 215.854C55.403 188.285 53.1979 148.585 52.3966 125.084C51.9908 113.245 49.96 105.066 49.96 105.066C49.96 105.066 20.425 97.186 20.2488 107.154C20.093 115.976 30.0323 150.571 32.6657 165.121Z" fill="#2B478B"/>
<path d="M32.6657 165.121L52.3967 125.083C51.9909 113.244 49.96 105.065 49.96 105.065C49.96 105.065 20.425 97.1856 20.2488 107.154C20.093 115.976 30.0323 150.571 32.6657 165.121Z" fill="#233862"/>
<path d="M39.2378 107.189L23.624 220.351C23.624 220.351 16.7669 222.004 11.4346 220.683C11.4346 220.683 6.86254 160.498 7.24371 145.948C7.62488 131.397 3.96479 107.015 8.07983 104.326C12.1969 101.635 39.2378 107.189 39.2378 107.189Z" fill="#2B478B"/>
<path d="M35.7479 10.9973C33.3092 11.7658 28.151 10.9809 25.9951 12.7249C23.8392 14.473 25.8926 17.3462 23.4293 18.3729L23.4191 18.3769C22.9211 18.5839 22.3411 18.4425 22.003 18.0224C21.3206 17.1699 20.3758 16.3215 19.5131 16.6719C18.806 16.9629 18.7691 17.8769 19.0827 18.7663C19.345 19.5143 19.2712 20.3525 18.8163 21.0021C18.6216 21.285 18.4925 21.5924 18.5478 21.9039C18.7527 23.031 19.3143 24.4962 19.5192 25.2463L19.5745 26.0332C19.5745 26.0332 15.4472 21.5657 13.7093 17.8052C12.5166 15.2251 12.5392 5.583 18.3757 2.76313C18.3511 2.74468 18.3326 2.72418 18.3203 2.69959C18.1933 2.47416 17.8428 2.52539 17.8428 2.52539C18.3449 2.29997 19.1237 2.44342 19.1237 2.44342C19.1052 2.43112 19.138 2.39424 19.2077 2.34095C19.3102 1.66058 19.9967 1.17284 19.9967 1.17284C19.7631 1.50893 19.6647 1.84706 19.6237 2.09503C21.1566 1.28555 25.8742 -0.503502 29.6142 1.12366C32.1431 2.22415 34.4609 2.81025 36.0389 3.11355C37.3361 3.36562 38.2563 4.5235 38.2091 5.84326C38.1395 7.69586 37.4939 10.36 35.7479 10.9973Z" fill="#233862"/>
<path d="M16.8181 38.4891L20.4126 115.62C20.4126 115.62 50.4146 116.109 49.558 109.32C48.7014 102.531 38.7438 40.852 38.7438 40.852" fill="#E9F3FE"/>
<path d="M26.7083 86.804C26.7083 86.804 25.1856 107.406 22.2592 120.339C22.2592 120.339 4.75172 121.268 0.595673 114.507C0.595673 114.507 3.88485 86.6789 3.88485 81.033C3.88485 79.0493 3.7332 76.3524 3.48933 73.3378C3.1266 68.7698 2.56099 63.4805 2.02406 58.8716C1.28015 52.4531 0.595673 47.3523 0.595673 47.3523L15.0312 35.6219L26.7083 86.804Z" fill="#22407A"/>
<path d="M61.4484 111.179C61.4484 111.179 58.1818 113.224 53.038 112.537C51.1669 117.13 46.7506 118.689 46.7506 118.273C46.7506 118.224 45.7588 109.603 44.5865 99.4422C44.4718 98.4257 44.355 97.397 44.2341 96.36C44.2238 96.2719 44.2136 96.1817 44.2033 96.0936C44.0066 94.3927 43.8098 92.6712 43.611 90.958C42.2011 78.7215 40.8486 66.9911 40.8486 66.9911C37.7787 48.1967 35.1781 35.7757 35.1781 35.7757C41.7277 36.4582 46.1481 38.7903 47.9105 41.8459C53.1384 50.908 56.9235 73.5695 59.1429 90.5358C59.147 90.5789 59.1511 90.6219 59.1593 90.6649C59.5405 93.5934 59.8766 96.3498 60.1614 98.8356C60.1819 98.9914 60.1983 99.1451 60.2147 99.2947C61.0303 106.406 61.4484 111.179 61.4484 111.179Z" fill="#22407A"/>
<path d="M31.0753 23.8835C31.0753 23.8835 31.3602 24.7647 33.5838 24.443C33.5838 24.443 35.4508 24.1724 35.3114 23.1908C35.3114 23.1908 33.4362 22.6375 31.0753 23.8835Z" fill="white"/>
<path d="M15.9677 35.5299C15.9308 34.7921 19.4167 33.7757 19.4167 33.7757C19.4167 33.7757 23.4088 39.3088 29.983 39.4051C29.983 39.4051 28.1099 43.0509 25.9007 43.9956C25.9007 43.9956 16.1849 39.9011 15.9677 35.5299Z" fill="#D9E9F9"/>
<path d="M29.9831 39.276C29.9831 39.276 33.4649 37.2103 33.4772 34.9724C33.4772 34.9724 35.7273 34.6896 36.7089 35.7819C36.7089 35.7819 37.5348 39.6182 36.4405 41.8458C36.4405 41.8458 31.4237 41.0815 29.9831 39.276Z" fill="#D9E9F9"/>
<path d="M27.6181 38.9439L32.3419 37.8106C32.3419 37.8106 32.9587 37.8638 32.9403 38.6344C32.9239 39.4029 31.6102 41.6511 31.0303 41.8315C30.4483 42.0098 26.5012 40.4994 27.6181 38.9439Z" fill="#BA4C43"/>
<path d="M16.5169 35.1486C16.48 34.4129 18.8408 32.8964 18.8408 32.8964C18.8408 32.8964 23.4088 38.2349 29.983 38.3292C29.983 38.3292 28.1099 41.977 25.9007 42.9217C25.9007 42.9217 16.7341 39.5199 16.5169 35.1486Z" fill="#E9F3FE"/>
<path d="M29.9831 38.3292C29.9831 38.3292 33.5058 36.4623 33.5181 34.2244C33.5181 34.2244 35.6433 35.1609 36.627 36.2512C36.627 36.2512 37.5348 38.6715 36.4405 40.9011C36.4405 40.9011 31.4237 40.1367 29.9831 38.3292Z" fill="#E9F3FE"/>
<path d="M38.6169 103.006C38.4345 105.217 37.5881 107.285 36.2417 108.805L34.1247 111.193C33.5939 111.793 32.768 111.722 32.3336 111.039L29.778 107.033C29.0936 105.959 28.78 104.592 28.8989 103.219C29.1714 100.161 29.6797 94.2717 30.0977 88.5868C30.4359 83.9799 30.7146 79.5063 30.7597 76.7868C30.899 68.0997 29.7616 40.4215 29.7616 40.4215L31.4585 40.5097C31.4585 40.5097 35.5736 51.2112 37.6414 65.8127C38.1517 69.4072 38.5349 73.2353 38.705 77.2008C38.705 77.2008 39.4387 93.0093 38.6169 103.006Z" fill="#C65447"/>
<path d="M38.6169 103.006C38.4345 105.217 37.5881 107.285 36.2417 108.805L34.1247 111.193C33.5939 111.793 32.768 111.722 32.3336 111.039L29.778 107.033C29.0936 105.959 28.78 104.592 28.8989 103.219C29.1714 100.161 29.6797 94.2717 30.0977 88.5869C34.8522 82.0659 36.8421 73.1104 37.6414 65.8128C38.1517 69.4073 38.5349 73.2354 38.705 77.2008C38.705 77.2008 39.4387 93.0093 38.6169 103.006Z" fill="#BA4C43"/>
<path d="M18.8408 32.8963C18.8408 32.8963 28.1918 72.0612 26.704 86.8144C26.704 86.8144 23.2653 71.0489 14.9922 58.1339C14.9922 58.1339 18.0108 55.48 17.8469 54.5005C17.8469 54.5005 15.607 53.8365 13.4306 54.2832C13.4306 54.2832 13.6725 37.4008 15.0271 35.6179C16.3837 33.8349 18.8408 32.8963 18.8408 32.8963Z" fill="#233862"/>
<path d="M33.5181 34.2243C32.1143 34.337 42.7831 72.4956 43.5741 84.726C43.5741 84.726 42.6376 62.9006 42.7298 56.6092C42.7298 56.6092 38.8463 54.5537 38.8463 53.8323C38.8463 53.1109 42.988 51.16 42.988 51.16C42.988 51.16 40.3649 37.7184 38.9345 36.2388C37.502 34.7571 33.5181 34.2243 33.5181 34.2243Z" fill="#233862"/>
<path d="M53.0441 114.091C53.0441 114.091 52.3965 114.966 52.8084 117.169C53.2203 119.37 52.9929 120.585 53.5626 120.204C54.1323 119.825 55.3086 117.181 55.3086 117.181L53.0441 114.091Z" fill="#FFB27D"/>
<path d="M25.5647 92.8392C14.6786 91.2141 7.39943 81.0413 3.48932 73.3379C3.12659 68.7699 2.56097 63.4806 2.02405 58.8716L4.57136 51.6027L25.5647 92.8392Z" fill="#233862"/>
<path d="M60.2148 99.2946C58.0487 99.7967 51.4703 101.026 44.5865 99.4422C44.4718 98.4257 44.355 97.397 44.234 96.36C44.2238 96.2719 44.2136 96.1817 44.2033 96.0936C44.4287 95.2104 44.6562 94.3271 44.8816 93.4439C48.7774 94.8394 57.4831 97.8929 60.1616 98.8356C60.1821 98.9913 60.1984 99.145 60.2148 99.2946Z" fill="#233862"/>
<path d="M15.027 35.6179C15.0311 35.622 5.46282 36.827 1.0957 42.9217C-3.27142 49.0164 6.10631 82.2094 25.5647 92.8392C34.926 97.9523 61.9362 99.104 61.9362 99.104C61.9362 99.104 63.422 99.2516 64.0101 96.2637C64.2151 95.2206 64.0101 93.4438 64.0101 93.4438C64.0101 93.4438 33.264 81.9163 30.561 79.6969C27.8579 77.4754 15.027 35.6179 15.027 35.6179Z" fill="#22407A"/>
<path d="M75.5354 93.5258C75.5354 93.5258 72.318 92.7183 71.3958 92.5236C70.3199 92.2961 69.3342 91.4866 69.0206 91.8678C68.4366 92.5769 70.8999 93.823 71.8712 96.0138C72.3467 97.0897 73.3078 97.6738 75.2301 96.8848C76.1994 96.4872 76.972 94.4767 75.5354 93.5258Z" fill="#E2915A"/>
</svg>
