<svg width="532" height="344" viewBox="0 0 532 344" fill="none" xmlns="http://www.w3.org/2000/svg">
<path d="M386.974 91.7758L383.38 86.2174C382.332 86.3379 381.267 86.4009 380.185 86.4009C378.6 86.4009 377.048 86.2667 375.535 86.0118L371.654 91.373C369.756 90.8798 367.921 90.2249 366.168 89.4261L366.525 82.8168C364.228 81.5193 362.135 79.9039 360.303 78.031L359.699 78.2283V37.4173L361.359 38.0571C363.283 36.2856 365.458 34.7826 367.824 33.6057L367.816 26.9867C369.608 26.2839 371.474 25.7276 373.398 25.3358L376.992 30.8942C378.04 30.7751 379.105 30.7107 380.185 30.7107C381.771 30.7107 383.324 30.8449 384.837 31.1011L388.718 25.7399C390.617 26.2332 392.451 26.8867 394.205 27.6869L393.847 34.2948C396.143 35.5937 398.236 37.209 400.069 39.0819L406.354 37.0295C407.586 38.527 408.69 40.1342 409.654 41.8317L405.487 46.9627C406.566 49.3179 407.326 51.8471 407.712 54.4996L413.996 56.5342C414.036 57.2028 414.058 57.8769 414.058 58.5565C414.058 59.843 413.984 61.1131 413.844 62.3626L407.463 64.0629C406.937 66.6839 406.043 69.1706 404.84 71.4696L408.73 76.8157C407.679 78.4585 406.489 80.0026 405.179 81.4357L399.014 79.0545C397.089 80.8274 394.914 82.3304 392.547 83.5073L392.555 90.1249C390.764 90.8291 388.899 91.384 386.974 91.7758ZM380.185 45.2597C372.848 45.2597 366.9 51.2128 366.9 58.5565C366.9 65.9002 372.848 71.8533 380.185 71.8533C387.523 71.8533 393.471 65.9002 393.471 58.5565C393.471 51.2128 387.523 45.2597 380.185 45.2597Z" fill="#CEE3FF"/>
<path d="M398.306 73.9098C398.151 73.9098 397.997 73.8578 397.868 73.7509C397.578 73.5098 397.538 73.0768 397.78 72.7863C401.091 68.8021 402.914 63.7478 402.914 58.5565C402.914 56.0698 402.509 53.6283 401.707 51.3005C401.583 50.9429 401.774 50.5538 402.131 50.4305C402.488 50.3072 402.878 50.4962 403.002 50.8538C403.852 53.3268 404.283 55.9177 404.283 58.5565C404.283 64.067 402.347 69.4323 398.833 73.6618C398.698 73.8249 398.502 73.9098 398.306 73.9098Z" fill="white"/>
<path d="M396.383 42.5264C396.214 42.5264 396.046 42.4633 395.913 42.34C393.689 40.2424 391.111 38.6531 388.254 37.6159C387.898 37.4871 387.715 37.0939 387.843 36.7377C387.972 36.3829 388.365 36.1993 388.721 36.328C391.754 37.4296 394.491 39.1162 396.852 41.3426C397.128 41.6015 397.14 42.0345 396.881 42.3099C396.747 42.4537 396.565 42.5264 396.383 42.5264Z" fill="white"/>
<path d="M375.033 36.9843C374.726 36.9843 374.448 36.7774 374.369 36.4664C374.277 36.0992 374.499 35.7266 374.866 35.6348C376.751 35.158 378.701 34.9168 380.663 34.9168C381.042 34.9168 381.348 35.2237 381.348 35.6019C381.348 35.98 381.042 36.2869 380.663 36.2869C378.814 36.2869 376.977 36.5144 375.2 36.9624C375.144 36.9775 375.088 36.9843 375.033 36.9843Z" fill="white"/>
<path d="M357.482 108.935V78.9517L359.699 78.2283V108.523C358.96 108.662 358.218 108.801 357.482 108.935ZM359.699 37.4172L357.482 36.5609V28.539H158.313V37.0966C156.508 37.0377 154.691 37.0076 152.877 37.0076C151.252 37.0076 149.63 37.0309 148 37.0788V25.433H359.699V37.4172Z" fill="#CEE3FF"/>
<path d="M359.699 152.699H148V37.0789C149.63 37.0309 151.252 37.0076 152.877 37.0076C154.691 37.0076 156.508 37.0378 158.313 37.0967V145.371H357.482V108.935C358.218 108.801 358.96 108.662 359.699 108.523V152.699Z" fill="#C2DDFF"/>
<path d="M357.482 78.9518V36.5609L359.699 37.4172V78.2283L357.482 78.9518Z" fill="#B6D5FF"/>
<path d="M158.313 145.371H357.482V28.5388H158.313V145.371Z" fill="white"/>
<path d="M328.148 88.9179C337.64 79.8752 353.862 80.0807 353.52 93.8502C353.178 107.62 354.314 108.914 358.219 116.138C371.772 141.201 342.066 139.727 329.677 140.549C317.289 141.371 318.315 118.011 320.505 105.063C322.696 92.1157 325.371 91.5649 328.148 88.9179Z" fill="#303C60"/>
<path d="M332.573 167.868C329.53 193.444 324.001 212.35 323.385 224.475C322.769 236.599 320.305 284.34 320.305 284.34C320.305 284.34 327.081 283.866 327.697 282.839C328.313 281.811 340.428 254.89 339.812 238.243C339.196 221.598 351.912 196.288 351.912 196.288L348.845 171.455L332.573 167.868Z" fill="#4476BD"/>
<path d="M335.495 179.002L330.737 180.995C329.443 189.105 328.007 196.397 326.748 202.865C334.321 207.764 338.232 224.09 339.909 234.071C340.763 222.902 346.028 209.407 349.294 201.944L335.495 179.002Z" fill="#3E6BAB"/>
<path d="M357.47 165.29C357.47 165.29 367.726 178.384 367.404 193.238C366.915 215.852 364.451 222.308 368.739 246.019C370.413 255.279 365.042 285.573 365.042 285.573C365.042 285.573 360.455 285.932 357.991 284.705C358.196 282.48 355.026 246.271 348.852 229.627C345.861 221.567 341.66 198.993 339.401 186.045C337.142 173.099 336.731 170.428 337.553 170.428C338.374 170.428 357.47 165.29 357.47 165.29Z" fill="#4476BD"/>
<path d="M299.036 128.925C299.036 128.925 299.492 122.15 298.763 120.057C298.032 117.964 291.734 116.138 291.734 116.138C291.734 116.138 291.461 125.82 292.1 127.007C292.739 128.194 296.481 131.574 296.481 131.574L299.036 128.925Z" fill="#F09959"/>
<path d="M334.444 123.988C320.026 139.521 315.32 146.056 314.225 146.056C310.802 140.01 299.436 127.223 299.436 127.223L294.589 130.341C294.589 130.341 305.789 159.63 312.908 159.933C320.026 160.236 334.495 149.832 334.678 148.638C334.862 147.443 334.444 123.988 334.444 123.988Z" fill="#A2DFF2"/>
<path d="M319.406 158.415C326.46 155.54 334.541 149.528 334.678 148.638C334.862 147.443 334.444 123.988 334.444 123.988C331.301 127.375 328.558 130.378 326.176 133.005C323.593 142.631 323.762 153.114 319.406 158.415Z" fill="#96CFE0"/>
<path d="M349.093 113.763C349.093 113.763 362.89 120.685 365.902 132.938C368.914 145.189 360.002 160.327 358.907 168.405C357.812 176.484 332.625 177.904 332.625 169.258C332.625 160.967 326.314 143.371 326.67 138.888C327.506 128.371 342.866 115.488 342.866 115.488L349.093 113.763Z" fill="#A2DFF2"/>
<path d="M345.083 97.8907L351.007 116.172C351.007 116.172 344.682 121.056 333.858 132.808C334.278 124.987 340.824 116.464 340.824 116.464L336.344 99.2005L345.083 97.8907Z" fill="#F09959"/>
<path d="M347.846 106.417L345.084 97.8906L336.344 99.2004L340.825 116.464C340.825 116.464 340.387 117.161 339.742 118.258C343.962 115.122 346.552 111.22 347.846 106.417Z" fill="#E38540"/>
<path d="M341.82 102.016C340.222 107.833 334.036 111.037 329.639 109.827C325.243 108.617 324.303 103.455 325.901 97.6372C327.498 91.8198 332.358 88.0835 336.753 89.2933C341.149 90.5018 343.417 96.1986 341.82 102.016Z" fill="#F09959"/>
<path d="M331.524 161.06C333.442 173.225 326.319 199.25 326.319 199.25C326.319 199.25 330.567 200.216 343.298 198.983C356.029 197.75 361.642 185.033 363.558 184.678C365.475 184.323 366.459 196.513 367.404 197.476C368.35 198.439 368.493 182.083 366.022 175.652C361.642 164.254 362.499 159.419 364.136 152.514C367.048 140.233 331.524 161.06 331.524 161.06Z" fill="#A2DFF2"/>
<path d="M320.614 278.353C321.761 283.015 319.497 286.713 316.467 289.41C314.003 291.602 306.429 292.534 306.793 293.63C307.158 294.726 316.102 295.072 319.113 294.616C322.125 294.159 322.946 292.698 326.694 292.699C329.153 292.701 329.609 290.7 328.514 288.229C327.419 285.756 327.035 284.39 328.025 282.173C329.015 279.956 320.614 278.353 320.614 278.353Z" fill="#4476BD"/>
<path d="M365.307 278.353C365.123 283.194 364.562 286.8 365.749 289.044C370.33 292.88 374.139 297.238 372.685 297.538C365.749 298.973 363.103 294.812 359.178 293.63C354.362 292.177 359.634 286.121 357.748 278.353C356.698 274.033 365.019 275.069 365.019 275.069L365.307 278.353Z" fill="#4476BD"/>
<path d="M367.058 179.621C366.781 178.103 366.439 176.736 366.023 175.652C361.642 164.254 362.499 159.419 364.136 152.514C364.266 151.968 364.318 151.49 364.302 151.071C364.672 149.841 365.017 148.592 365.319 147.336L363.832 133.904L353.112 121.162C345.078 132.945 350.5 147.605 349.294 155.688C348.09 163.772 334.627 174.079 334.627 174.079L335.065 176.947C335.666 180.88 339.311 183.613 343.249 183.067C348.797 182.295 356.076 180.747 359.315 177.74C362.448 174.828 365.225 177.081 367.058 179.621Z" fill="#96CFE0"/>
<path d="M337.775 173.616C337.775 173.616 331.832 175.281 331.122 175.652C330.411 176.025 330.018 177.991 330.018 177.991C330.018 177.991 326.616 180.947 327.92 181.994C329.223 183.041 331.55 185.691 334.628 184.458C336.515 183.701 337.98 176.756 339.218 176.7C340.457 176.645 337.775 173.616 337.775 173.616Z" fill="#F09959"/>
<path d="M354.606 119.608C360.966 119.789 366.733 131.254 368.743 141.201C370.752 151.149 372.867 165.29 372.867 165.29C372.867 165.29 362.327 173.616 351.912 176.049C342.825 178.173 338.187 179.002 338.187 179.002L336.344 173.81L358.083 161.032C358.083 161.032 350.09 145.96 349.294 134.589C348.5 123.217 349.772 119.471 354.606 119.608Z" fill="#A2DFF2"/>
<path d="M295.44 123.935L279.585 127.119L277.566 117.042L293.421 113.856L295.44 123.935Z" fill="#F5DC95"/>
<path d="M295.223 128.103C295.44 123.935 293.377 118.25 292.192 118.258C291.005 118.267 292.556 121.984 291.918 124.45C291.572 125.786 295.223 128.103 295.223 128.103Z" fill="#F09959"/>
<path d="M327.065 91.11C327.419 102.528 340.742 101.653 344.393 100.949C348.044 100.244 339.948 125.036 346.903 126.467C352.009 127.518 350.859 119.523 356.532 120.057C359.041 120.293 361.563 124.176 361.563 124.176C361.563 124.176 361.186 121.785 359.27 120.057C357.353 118.33 352.328 107.735 351.007 100.153C349.687 92.5719 340.742 87.6683 338.096 87.5176C335.45 87.3655 328.97 90.3797 328.97 90.3797L327.065 91.11Z" fill="#303C60"/>
<path d="M346.785 129.051C346.604 129.051 346.422 129.032 346.236 128.992C344.01 128.518 342.932 126.176 342.84 121.625C342.761 117.723 343.405 112.715 344.087 107.414C344.364 105.273 344.648 103.057 344.884 100.912C344.903 100.729 345.066 100.597 345.251 100.617C345.434 100.636 345.567 100.802 345.546 100.986C345.311 103.135 345.025 105.355 344.75 107.499C343.429 117.757 342.181 127.445 346.374 128.34C346.504 128.367 346.635 128.381 346.765 128.381C349.173 128.381 351.341 123.684 352.604 119.108C352.654 118.931 352.837 118.827 353.015 118.876C353.193 118.926 353.297 119.109 353.248 119.286C352.413 122.306 350.169 129.051 346.785 129.051Z" fill="#303C60"/>
<path d="M345.894 131.705C345.135 131.705 344.474 131.41 343.922 130.828C339.38 126.021 343.872 101.91 344.065 100.887C344.099 100.705 344.274 100.587 344.455 100.621C344.636 100.655 344.755 100.829 344.721 101.01C344.674 101.258 340.098 125.809 344.407 130.369C344.908 130.899 345.502 131.11 346.221 131.015C348.58 130.703 349.94 127.5 351.142 124.675C352.307 121.933 353.404 119.344 355.356 119.412C355.541 119.419 355.685 119.574 355.678 119.757C355.672 119.941 355.518 120.09 355.333 120.079C355.316 120.078 355.301 120.078 355.285 120.078C353.821 120.078 352.818 122.439 351.756 124.935C350.485 127.926 349.044 131.316 346.307 131.677C346.168 131.695 346.029 131.705 345.894 131.705Z" fill="#303C60"/>
<path d="M344.888 103.142C343.949 104.353 342.477 104.784 341.601 104.103C340.725 103.423 340.777 101.889 341.716 100.677C342.654 99.4662 344.125 99.036 345.001 99.717C345.877 100.397 345.827 101.931 344.888 103.142Z" fill="#F09959"/>
<path d="M241.359 145.421C244.612 151.931 241.919 159.429 235.521 162.077C229.081 164.743 222.04 163.229 218.787 156.719C215.534 150.209 217.949 142.402 224.183 139.283C230.416 136.163 238.105 138.911 241.359 145.421Z" fill="#303C60"/>
<path d="M223.823 162.859C223.106 162.859 221.691 162.606 219.892 161.007C218.415 159.697 217.355 157.687 216.907 155.348C216.341 152.396 216.71 149.003 218.003 145.262C218.063 145.088 218.252 144.996 218.427 145.056C218.601 145.117 218.693 145.306 218.632 145.48C217.378 149.109 217.018 152.386 217.562 155.222C217.983 157.417 218.968 159.294 220.334 160.508C222.616 162.535 224.145 162.166 224.161 162.162C224.338 162.115 224.522 162.219 224.569 162.396C224.617 162.573 224.516 162.755 224.339 162.804C224.318 162.811 224.137 162.859 223.823 162.859Z" fill="#303C60"/>
<path d="M233.771 170.755C237.474 171.586 242.148 181.882 244.437 188.479C246.745 195.132 250.659 203.385 253.221 205.949C255.783 208.514 272.62 214.459 272.62 214.459C272.62 214.459 231.02 214.539 231.871 214.457C232.724 214.375 233.771 170.755 233.771 170.755Z" fill="#A8CEFF"/>
<path d="M255.856 211.151C253.58 210.825 245.364 211.884 248.861 210.418C252.359 208.953 251.871 207.081 251.871 207.081C251.871 207.081 246.909 211.232 246.015 207.601C245.243 204.472 244.947 193.419 242.019 182.341C239.6 176.848 236.434 171.353 233.771 170.755C233.771 170.755 233.678 174.656 233.524 180.125C234.545 192.227 236.279 210.008 236.719 214.491C242.233 214.5 251.461 214.491 259.182 214.48L264.316 214.235C264.316 214.235 258.134 211.477 255.856 211.151Z" fill="#93BBF0"/>
<path d="M220.16 168.474C220.16 168.474 208.383 175.059 205.638 176.46C202.894 177.861 213.329 218.97 215.651 220.732C217.971 222.494 238.405 221.035 240.731 218.815C243.058 216.596 238.946 209.784 240.959 196.144C242.972 182.504 234.818 170.729 233.771 170.755C232.724 170.781 225.888 168.474 225.888 168.474H220.16Z" fill="#A8CEFF"/>
<path d="M215.651 220.732C217.971 222.494 232.593 222.532 238.817 220.595C239.519 220.376 242.709 219.104 242.783 217.908C242.033 217.767 239.05 218.126 237.84 217.847C233.63 216.879 231.311 211.661 231.311 211.661C231.311 211.661 228.994 210.825 223.808 208.627C218.623 206.43 220.758 199.774 220.636 196.843C220.513 193.912 215.511 184.326 206.116 177.06L205.255 177.447C204.584 184.127 213.503 219.102 215.651 220.732Z" fill="#93BBF0"/>
<path d="M296.559 188.479H268.203L255.287 215.985H286.523L298.214 191.086C298.783 189.872 297.899 188.479 296.559 188.479Z" fill="#75A1DE"/>
<path d="M256.977 216.375H239.914C238.856 216.375 237.997 215.516 237.997 214.457C237.997 213.398 238.856 212.539 239.914 212.539H255.755L266.464 189.471C266.91 188.509 268.051 188.092 269.01 188.539C269.97 188.986 270.386 190.126 269.94 191.086L258.715 215.266C258.401 215.942 257.724 216.375 256.977 216.375Z" fill="#3E6BAB"/>
<path d="M227.387 210.5C234.79 211.884 236.609 213.584 240.645 214.235C245.218 214.974 244.675 215.985 241.277 215.985C237.881 215.985 229.343 216.118 226.413 215.465C223.483 214.815 227.387 210.5 227.387 210.5Z" fill="#F09959"/>
<path d="M204.713 177.231C199.04 195.385 190.998 215.985 192.279 215.985C193.56 215.985 226.135 217.303 227.417 216.205C228.698 215.108 228.331 210.895 228.149 210.345C227.966 209.796 209.629 206.539 209.629 206.539C209.629 206.539 212.044 201.829 212.959 192.624C213.874 183.42 205.789 173.788 204.713 177.231Z" fill="#A8CEFF"/>
<path d="M224.474 152.699L219.904 169.412C219.904 169.412 227.625 181.476 229.748 180.405C231.871 179.332 228.561 170.599 228.561 169.412C228.561 168.226 231.871 155.98 231.871 155.98L224.474 152.699Z" fill="#F09959"/>
<path d="M228.72 170.265C228.621 169.869 228.561 169.571 228.561 169.412C228.561 168.226 231.871 155.98 231.871 155.98L224.474 152.699L222.961 158.23C224.282 163.943 226.665 167.748 228.72 170.265Z" fill="#E38540"/>
<path d="M241.573 152.422C242.444 157.268 241.87 163.706 237.57 165.342C233.269 166.979 228.09 163.847 226 158.349C223.911 152.849 225.703 147.065 230.004 145.428C234.304 143.792 240.533 146.632 241.573 152.422Z" fill="#F09959"/>
<path d="M227.02 155.15C227.622 156.843 227.099 158.578 225.851 159.023C224.602 159.467 223.101 158.454 222.498 156.76C221.896 155.066 222.419 153.332 223.667 152.886C224.916 152.442 226.417 153.455 227.02 155.15Z" fill="#F09959"/>
<path d="M241.624 146.333C240.159 157.706 226.353 156.24 226.353 156.24C226.353 156.24 223.506 152.494 222.224 154.459C220.943 156.424 224.001 142.928 231.923 142.504C234.527 142.364 241.624 146.333 241.624 146.333Z" fill="#303C60"/>
<path d="M227.591 141.524C227.591 145.403 224.242 148.546 220.112 148.546C215.984 148.546 212.635 145.403 212.635 141.524C212.635 137.647 215.984 134.502 220.112 134.502C224.242 134.502 227.591 137.647 227.591 141.524Z" fill="#303C60"/>
<path d="M205.218 298.625H206.928L217.97 247.423H214.208L205.218 298.625Z" fill="#2E5B9A"/>
<path d="M258.381 298.625H256.671L243.821 245.613H247.583L258.381 298.625Z" fill="#2E5B9A"/>
<path d="M224.728 249.341C217.878 249.341 213.539 248.111 210.769 245.41C207.337 242.063 206.627 236.879 206.616 230.124C206.608 224.808 206.482 221.346 206.194 218.547C206.086 217.493 206.851 216.55 207.904 216.442C208.957 216.334 209.899 217.1 210.007 218.154C210.308 221.088 210.441 224.666 210.449 230.117C210.46 236.964 211.328 240.599 213.444 242.662C215.617 244.78 219.543 245.653 226.173 245.487C232.575 245.328 236.983 244.432 240.523 243.712C245.181 242.765 248.546 242.08 252.537 243.988C253.492 244.446 253.896 245.59 253.44 246.546C252.983 247.503 251.839 247.907 250.884 247.449C248.052 246.095 245.648 246.585 241.287 247.471C237.598 248.222 233.008 249.155 226.267 249.322C225.741 249.334 225.228 249.341 224.728 249.341Z" fill="#2E5B9A"/>
<path d="M209.166 216.206L219.652 216.643L216.861 245.615C216.861 245.615 209.044 240.622 209.166 235.249C209.29 229.876 209.166 216.206 209.166 216.206Z" fill="#2E5B9A"/>
<path d="M260.925 218.905C269.791 217.558 272.804 217.982 278.23 228.09C283.655 238.196 290.878 256.392 295.031 258.743C301.286 262.282 303.358 270.959 305.927 270.57C308.495 270.179 310.148 271.315 307.353 273.64C304.559 275.964 300.046 277.944 298.503 277.531C296.96 277.119 295.762 270.445 291.732 268.279C287.702 266.111 288.913 264.332 289.178 262.415C289.442 260.498 277.413 251.675 268.344 240.7C262.804 233.993 259.949 229.568 259.526 225.556C259.103 221.545 260.925 218.905 260.925 218.905Z" fill="#F09959"/>
<path d="M282.904 255.552C280.845 250.323 278.779 241.695 276.838 233.784C274.077 222.532 271.183 219.862 269.35 218.662C267.134 218.106 264.508 218.36 260.925 218.904C260.925 218.904 259.103 221.545 259.526 225.556C259.949 229.568 262.804 233.993 268.344 240.7C273.119 246.478 278.713 251.659 282.904 255.552Z" fill="#E38540"/>
<path d="M263.625 227.799C263.625 227.799 261.266 245.613 259.069 247.425C257.499 248.719 256.386 248.806 255.287 243.492C254.189 238.179 256.995 218.35 256.995 218.35L263.625 227.799Z" fill="#2E5B9A"/>
<path d="M261.746 237.439L239.914 241.111L252.24 223.422L261.62 221.51L267.245 222.805L261.746 237.439Z" fill="#F09959"/>
<path d="M289.177 262.415C288.469 265.27 288.554 267.38 289.785 268.438C291.014 269.494 295.661 277.353 295.661 277.353L297.109 277.132L293.756 269.942L289.177 262.415Z" fill="#2E5B9A"/>
<path d="M298.502 277.531C300.045 277.944 304.559 275.964 307.353 273.64C310.148 271.315 308.495 270.179 305.926 270.569C305.783 270.591 305.639 270.582 305.496 270.548C304.214 273.415 299.995 275.566 298.634 272.537C297.284 269.535 291.504 263.56 289.176 262.282C289.181 262.328 289.183 262.373 289.177 262.414C288.913 264.331 287.701 266.111 291.732 268.279C295.762 270.445 296.96 277.119 298.502 277.531Z" fill="#2E5B9A"/>
<path d="M216.365 219.618C208.62 233.53 213.911 242.371 223.325 243.273C232.739 244.173 247.6 242.454 256.263 235.248C264.927 228.044 272.037 220.425 271.045 219.29C270.051 218.152 216.365 219.618 216.365 219.618Z" fill="#E38540"/>
<path d="M260.29 229.998C261.876 225.236 263.704 221.582 267.245 221.515C270.967 221.446 273.257 223.383 273.416 229.478C273.605 236.735 273.861 260.769 273.525 271.456C273.272 279.546 275.628 282.136 275.428 290.569C275.279 296.921 282.044 293.712 279.431 297.007C277.633 299.272 272.284 298.53 268.998 298.113C266.07 297.74 270.514 288.958 266.462 286.609C262.984 284.595 262.916 281.323 265.112 278.848C267.308 276.371 265.355 269.045 263.892 263.915C262.427 258.787 260.156 253.238 258.665 241.111C258.24 237.653 259.321 232.907 260.29 229.998Z" fill="#F09959"/>
<path d="M277.116 294.413C275.995 294.756 274.612 295.134 273.409 295.174C270.968 295.255 270.236 292.568 270.074 288.919C269.932 285.733 267.62 280.714 265.247 278.679C265.203 278.737 265.16 278.794 265.112 278.848C262.916 281.324 262.984 284.595 266.462 286.609C270.514 288.958 266.07 297.74 268.998 298.113C272.284 298.53 277.634 299.272 279.431 297.007C281.13 294.866 279.022 294.696 277.116 294.413Z" fill="#2E5B9A"/>
<path d="M265.661 277.939C265.661 277.939 262.101 281.659 262.427 283.206C262.753 284.753 263.849 288.66 264.033 291.673C264.216 294.684 264.379 298.143 264.379 298.143C264.379 298.143 265.661 298.143 265.762 297.778C265.865 297.415 266.576 285.535 266.576 285.535L265.661 277.939Z" fill="#2E5B9A"/>
<path d="M212.635 218.35C212.635 218.35 208.041 237.864 213.845 243.273C219.649 248.682 243.754 243.817 249.431 243.492C253.275 243.273 256.995 247.968 256.995 247.968C256.995 247.968 254.311 237.08 256.141 228.288C257.971 219.496 260.926 218.904 260.926 218.904L256.995 218.35H212.635Z" fill="#75A1DE"/>
<path d="M211.595 213.247C213.559 217.419 209.48 224.624 210.909 226.7C212.339 228.776 220.524 226.991 225.888 222.671C231.251 218.349 241.402 217.4 241.402 217.4L211.595 213.247Z" fill="#A8CEFF"/>
<path d="M219.904 248.804C236.131 249.414 253.213 249.126 253.213 246.705C253.213 244.286 252.48 242.576 239.914 243.553C227.347 244.529 218.806 245.874 215.024 245.019C211.241 244.164 219.904 248.804 219.904 248.804Z" fill="#2E5B9A"/>
<path d="M392.956 220.406H164.314C163.338 220.406 162.547 219.614 162.547 218.637V217.754C162.547 216.777 163.338 215.985 164.314 215.985H392.956C393.932 215.985 394.724 216.777 394.724 217.754V218.637C394.724 219.614 393.932 220.406 392.956 220.406Z" fill="#2E5B9A"/>
<path d="M423.337 156.728C424.908 162.276 421.069 167.992 416.839 169.193C412.61 170.393 409.592 166.624 408.019 161.077C406.447 155.529 408.602 150.06 412.83 148.858C417.06 147.658 421.764 151.181 423.337 156.728Z" fill="#F09959"/>
<path d="M399.622 264.219C399.622 264.219 410.462 281.071 411.925 281.803C413.39 282.536 417.051 282.72 415.678 285.467C414.305 288.214 413.756 299.021 412.474 299.57C411.194 300.12 400.213 301.402 401.86 299.57C403.508 297.739 404.521 298.655 405.352 295.357C406.183 292.061 407.351 285.832 405.795 284.551C404.239 283.269 394.724 271.729 394.724 271.729L399.622 264.219Z" fill="#F09959"/>
<path d="M345.061 271.456C345.061 271.456 331.884 293.193 329.443 295.146C327.004 297.1 318.95 300.032 325.539 300.52C332.128 301.009 335.301 298.322 339.449 297.1C343.597 295.879 348.722 295.146 346.77 291.972C344.818 288.797 345.628 281.866 349.836 277.469C354.046 273.073 345.061 271.456 345.061 271.456Z" fill="#F09959"/>
<path d="M412.308 221.051C412.308 221.051 379.687 220.198 366.754 230.82C359.189 242.3 340.888 276.169 339.465 279.901C340.441 280.878 345.932 282.641 348.373 282.396C355.572 273.806 365.086 266.378 368.871 259.64C373.534 251.336 374.971 247.185 382.536 246.452C390.101 245.719 407.182 243.277 412.308 243.277C417.431 243.277 412.308 221.051 412.308 221.051Z" fill="#6791C9"/>
<path d="M440.754 300.579H439.044L426.783 249.377H430.544L440.754 300.579Z" fill="#2E5B9A"/>
<path d="M389.531 300.579H391.242L405.312 247.567H401.55L389.531 300.579Z" fill="#2E5B9A"/>
<path d="M430.89 218.815L411.925 222.091C411.925 222.091 386.723 222.323 375.204 224.471C364.722 226.425 363.178 238.343 375.204 254.756C382.035 264.079 387.81 271.516 399.621 279.901C402.626 277.694 403.775 276.858 404.606 271.547C403.75 270.374 401.538 263.031 400.851 261.594C394.318 247.926 385.598 242.955 385.478 241.611C386.941 239.23 424.259 254.023 431.679 245.321C438.763 237.013 430.89 218.815 430.89 218.815Z" fill="#75A1DE"/>
<path d="M431.679 175.844C426.684 175.141 421.597 176.092 416.839 179.539C412.681 183.781 407.978 190.775 408.266 202.313C408.632 216.966 406.001 217.907 408.746 221.936C420.195 226.669 439.777 247 435.166 225.203C431.826 209.421 442.489 197.657 433.888 180.15C433.187 178.725 432.312 177.343 431.679 175.844Z" fill="#F37168"/>
<path d="M408.262 207.827C408.041 215.467 406.962 217.717 407.786 220.112C412.454 220.589 420.992 222.459 423.126 225.448C425.566 228.867 428.007 229.356 426.868 226.832C425.729 224.308 422.72 220.726 427.356 208.433C431.992 196.14 434.189 187.836 429.633 179.288L408.262 207.827Z" fill="#D54A41"/>
<path d="M431.679 175.844C428.603 168.556 427.847 160.369 427.847 160.369L419.795 162.75C419.795 162.75 424.37 173.006 419.979 176.67C419.045 177.448 417.961 178.393 416.839 179.539C421.597 176.092 426.684 175.141 431.679 175.844Z" fill="#F09959"/>
<path d="M428.09 162.308C427.614 161.884 427.017 161.354 426.39 160.799L419.821 162.741L419.807 162.777C419.966 163.14 421.639 167.048 421.86 170.806C423.817 169.617 425.96 167.679 428.41 164.294C428.278 163.543 428.172 162.873 428.09 162.308Z" fill="#E38540"/>
<path d="M426.017 178.135C417.724 181.038 418.644 189.783 411.011 202.68C407.06 209.353 403.391 209.253 403.391 209.253C403.391 209.253 394.128 209.329 382.922 207.957C375.905 207.098 375.46 209.189 380.34 210.936C390.183 214.457 400.396 218.248 408.632 217.333C416.867 216.416 430.952 195.387 431.679 189.912C432.684 182.341 430.194 176.673 426.017 178.135Z" fill="#F09959"/>
<path d="M421.749 251.296C421.235 251.296 420.708 251.289 420.167 251.276C413.426 251.108 408.836 250.175 405.147 249.425C400.785 248.538 398.381 248.049 395.549 249.404C394.595 249.86 393.45 249.456 392.995 248.5C392.537 247.543 392.941 246.399 393.897 245.942C397.887 244.033 401.253 244.718 405.911 245.665C409.452 246.386 413.859 247.282 420.261 247.441C427.471 247.619 431.882 246.536 434.136 244.036C436.148 241.803 436.741 238.08 436 232.319C435.749 230.368 435.499 228.746 435.279 227.315C434.657 223.3 434.248 220.646 434.754 216.556C435.225 212.743 436.49 207.657 439.417 197.789C439.718 196.773 440.786 196.195 441.8 196.497C442.815 196.798 443.394 197.865 443.093 198.88C437.615 217.34 437.893 219.143 439.066 226.729C439.291 228.183 439.546 229.831 439.802 231.83C440.695 238.783 439.799 243.478 436.982 246.605C434.078 249.827 429.344 251.296 421.749 251.296Z" fill="#2E5B9A"/>
<path d="M345.957 289.777C337.213 294.056 332.508 296.51 329.705 296.275C329.043 296.221 328.495 296.152 328.035 296.081C324.916 297.925 319.939 300.105 325.539 300.52C332.128 301.009 335.301 298.322 339.449 297.1C343.598 295.879 348.722 295.146 346.77 291.972C346.396 291.364 346.124 290.617 345.957 289.777Z" fill="#D54A41"/>
<path d="M412.88 282.161C412.665 289.089 411.714 295.955 407.479 297.252C406.358 297.596 405.334 297.645 404.429 297.525C403.764 298.348 402.951 298.358 401.86 299.57C400.213 301.402 411.195 300.12 412.475 299.57C413.756 299.021 414.305 288.214 415.678 285.467C416.806 283.21 414.536 282.683 412.88 282.161Z" fill="#D54A41"/>
<path d="M379.2 216.375H351.423C350.677 216.375 349.999 215.942 349.686 215.266L338.46 191.086C338.014 190.126 338.43 188.986 339.39 188.539C340.351 188.092 341.49 188.509 341.936 189.471L352.645 212.539H379.2C380.26 212.539 381.116 213.398 381.116 214.457C381.116 215.516 380.26 216.375 379.2 216.375Z" fill="#75A1DE"/>
<path d="M385.011 208.198C379.398 208.118 373.832 204.769 371.067 205.258C368.302 205.746 359.272 212.014 360.411 212.259C361.55 212.503 368.708 208.79 368.952 208.733C369.196 208.677 370.741 211.306 374.565 212.27C378.388 213.236 374.592 209.403 386.443 212.985C394.148 215.315 385.011 208.198 385.011 208.198Z" fill="#F09959"/>
<path d="M430.854 169.193L431.679 175.844C431.679 175.844 424.416 176.275 420.802 178.311C417.188 180.346 411.854 186.226 411.854 186.226L416.212 178.718L416.839 173.915L430.854 169.193Z" fill="#F2E5DE"/>
<path d="M427.763 177.334C422.368 176.322 419.872 181.16 416.375 189.057C412.877 196.954 406.906 206.545 405.719 207.782C404.532 209.018 385.709 207.782 385.709 207.782C385.709 207.782 385.14 213.236 385.709 213.887C386.277 214.538 389.531 214.457 389.531 214.457C389.531 214.457 390.833 215.497 392.053 216.32C393.274 217.144 403.604 218.691 408.404 218.447C413.202 218.201 417.595 217.795 418.245 217.062C418.896 216.33 431.992 196.14 432.806 188.894C433.619 181.649 430.516 177.851 427.763 177.334Z" fill="#F2E5DE"/>
<path d="M411.855 144.118C401.652 144.607 403.252 159.968 403.252 159.968C403.252 159.968 405.903 160.788 411.454 159.871C411.026 158.223 411.21 154.01 411.21 154.01C411.21 154.01 411.855 157.43 412.673 159.505C413.848 160.044 415.174 159.566 417.432 159.02C418.591 163.901 421.867 165.964 424.109 166.67C426.587 167.449 429.21 168.378 432.138 166.913C435.066 165.447 433.456 150.468 431.901 147.457C429.567 142.934 425.688 138.888 418.977 141.024C415.612 142.097 411.855 144.118 411.855 144.118Z" fill="#303C60"/>
<path d="M429.597 162.362L433.768 168.46C433.768 168.46 429.145 180.021 442.59 185.258C453.12 189.36 451.879 196.587 447.121 203.855C442.364 211.124 449.968 217.471 449.968 217.471C449.968 217.471 451.128 209.419 461.359 207.9C475.31 205.828 479.259 187.082 468.84 177.71C460.218 169.954 457.595 176.377 451.758 169.417C445.922 162.456 434.905 167.157 434.905 167.157L430.866 161.263L429.597 162.362Z" fill="#303C60"/>
<path d="M473.639 196.555C473.585 196.555 473.531 196.542 473.479 196.514C473.317 196.425 473.258 196.223 473.347 196.061C476.863 189.63 473.993 181.838 472.55 179.728C472.398 179.505 472.253 179.278 472.1 179.04C470.682 176.823 468.917 174.065 459.508 172.37C457.254 171.965 455.426 170.621 453.491 169.199C449.477 166.25 444.926 162.909 435.043 167.46C434.876 167.538 434.677 167.464 434.601 167.297C434.524 167.13 434.596 166.931 434.765 166.854C445.006 162.137 449.723 165.604 453.885 168.662C455.756 170.036 457.525 171.335 459.626 171.714C469.321 173.461 471.173 176.355 472.663 178.68C472.812 178.914 472.954 179.136 473.101 179.35C473.97 180.623 475.045 183.257 475.484 186.276C475.866 188.892 475.906 192.771 473.932 196.381C473.872 196.492 473.756 196.555 473.639 196.555Z" fill="#303C60"/>
<path d="M427.368 168.573C426.703 168.573 425.983 168.515 425.208 168.399C421.652 167.866 416.881 165.842 416.506 154.469C416.499 154.284 416.644 154.13 416.827 154.123C417.018 154.115 417.166 154.262 417.172 154.447C417.327 159.154 418.262 162.639 419.949 164.803C421.233 166.45 422.936 167.383 425.307 167.738C428.627 168.237 430.829 167.62 431.852 165.906C431.946 165.749 432.152 165.697 432.309 165.791C432.468 165.886 432.519 166.091 432.424 166.249C431.501 167.794 429.805 168.573 427.368 168.573Z" fill="#303C60"/>
<path d="M108.955 176.642C97.1135 183.42 80.6426 211.591 84.1197 216.189C87.597 220.786 106.264 208.697 106.264 208.697L108.955 176.642Z" fill="#96CFE0"/>
<path d="M131.079 143.974C126.557 143.85 128.235 140.487 123.035 141.83C120.301 142.537 122.319 143.661 118.768 143.296C115.216 142.928 113.469 142.563 113.021 144.882C112.573 147.203 112.357 147.936 110.649 148.302C108.941 148.668 108.169 151.722 110.649 153.797C113.128 155.873 111.923 156.728 111.374 158.438C110.825 160.148 112.696 160.27 113.713 161.856C114.729 163.444 112.777 163.744 114.241 165.121C115.705 166.497 117.759 166.375 117.759 166.375L123.923 154.547L131.079 143.974Z" fill="#303C60"/>
<path d="M223.204 285.945C223.204 285.945 229.793 286.128 234.917 284.113C240.041 282.097 243.518 278.985 242.604 282.647C241.689 286.311 237.48 292.595 233.819 293.208C230.159 293.82 228.877 297.851 226.865 297.851C224.851 297.851 221.923 293.208 216.799 290.888C212.128 288.774 223.204 285.945 223.204 285.945Z" fill="#2E5B9A"/>
<path d="M171.284 285.327C171.284 285.327 174.056 289.151 178.877 291.811C183.857 294.558 189.604 295.881 186.041 297.123C182.479 298.366 177.269 299.332 172.189 297.855C168.624 296.819 164.446 296.603 163.343 294.917C162.239 293.232 164.642 289 163.642 282.675C162.841 277.607 171.284 285.327 171.284 285.327Z" fill="#2E5B9A"/>
<path d="M140.433 223.856C140.433 223.856 178.598 238.159 181.674 242.158C184.749 246.156 224.865 282.578 224.865 285.264C224.865 287.951 218.033 292.836 218.033 292.836C218.033 292.836 183.626 271.71 175.085 260.964C166.543 250.217 145.698 245.037 134.617 244.042C123.535 243.046 140.433 223.856 140.433 223.856Z" fill="#3E6BAB"/>
<path d="M141.897 223.856C141.897 223.856 168.008 222.879 173.621 223.856C179.233 224.833 191.544 224.822 183.492 247.567C177.18 265.395 175.098 287.966 175.098 287.966L162.547 291.051C162.547 291.051 163.046 250.465 169.033 239.659C164.673 240.378 156.669 241.781 145.575 244.957C124.996 250.847 113.713 247.897 113.713 247.897L110.649 237.15L141.897 223.856Z" fill="#4476BD"/>
<path d="M120.093 156.384L113.713 175.251L121.773 180.562L126.34 164.261L120.093 156.384Z" fill="#A86B48"/>
<path d="M122.494 177.989L126.34 164.261L120.093 156.384L117.759 163.285C118.564 169.518 120.51 174.673 122.494 177.989Z" fill="#7A4E34"/>
<path d="M136.367 159.578C136.574 165.316 133.757 170.282 129.281 170.724C124.805 171.166 120.72 166.891 120.157 161.177C119.594 155.464 122.767 150.474 127.243 150.031C131.719 149.59 136.04 150.523 136.367 159.578Z" fill="#A86B48"/>
<path d="M110.649 174.701C91.0652 187.938 103.246 209.327 107.546 224.959C111.208 238.272 111.089 246.319 111.638 246.319C112.187 246.319 125.655 244.303 133.342 237.343C141.029 230.383 146.225 223.641 146.225 223.641C146.225 223.641 136.377 221.886 133.159 209.136C131.525 202.663 132.268 199.149 128.543 188.891C124.818 178.635 110.649 174.701 110.649 174.701Z" fill="#A2DFF2"/>
<path d="M110.649 174.701L112.746 169.565C112.746 169.565 119.396 173.961 122.05 176.037C124.703 178.113 126.34 178.602 126.34 178.602C126.34 178.602 127.3 185.965 126.677 185.296C118.828 176.877 110.649 174.701 110.649 174.701Z" fill="#A2DFF2"/>
<path d="M101.97 300.579H103.679L115.941 249.377H112.179L101.97 300.579Z" fill="#2E5B9A"/>
<path d="M153.19 300.579H151.481L137.411 247.567H141.173L153.19 300.579Z" fill="#2E5B9A"/>
<path d="M121.018 251.295C114.168 251.295 109.828 250.065 107.059 247.364C103.626 244.017 102.916 238.833 102.906 232.078C102.884 217.877 102.099 214.941 98.1048 206.27C97.6617 205.308 98.0817 204.168 99.043 203.724C100.004 203.281 101.143 203.701 101.586 204.664C105.808 213.83 106.716 217.199 106.739 232.073C106.749 238.918 107.617 242.552 109.734 244.616C111.905 246.734 115.831 247.607 122.462 247.441C128.865 247.282 133.272 246.386 136.813 245.665C141.47 244.719 144.836 244.033 148.826 245.942C149.782 246.4 150.186 247.544 149.729 248.5C149.273 249.456 148.128 249.86 147.174 249.404C144.342 248.049 141.938 248.538 137.576 249.425C133.888 250.176 129.297 251.109 122.557 251.276C122.03 251.289 121.517 251.295 121.018 251.295Z" fill="#2E5B9A"/>
<path d="M205.636 216.153H177.857C176.799 216.153 175.941 215.296 175.941 214.235C175.941 213.176 176.799 212.317 177.857 212.317H204.412L215.122 189.249C215.569 188.288 216.708 187.87 217.667 188.317C218.628 188.764 219.044 189.904 218.598 190.865L207.373 215.044C207.059 215.721 206.38 216.153 205.636 216.153Z" fill="#3E6BAB"/>
<path d="M111.374 193.973C111.374 193.973 116.254 208.871 122.294 215.038C128.333 221.205 140.488 223.278 144.294 223.035C141.26 221.814 135.482 218.34 133.159 209.136C131.525 202.663 132.268 199.149 128.543 188.891C125.778 181.277 117.259 177.148 113.051 175.526C118.303 179.302 124.869 185.518 126.887 190.249C129.127 195.5 111.374 193.973 111.374 193.973Z" fill="#96CFE0"/>
<path d="M178.736 207.048C178.736 207.048 187.154 203.202 188.07 203.568C188.984 203.935 198.317 209.575 198.317 210.51C198.317 211.444 190.082 207.027 190.082 207.027C190.082 207.027 190.998 209.469 190.449 210.64C189.9 211.81 183.569 211.81 177.857 211.444C172.147 211.078 178.736 207.048 178.736 207.048Z" fill="#A86B48"/>
<path d="M111.643 182.463C103.883 198.382 130.503 214.519 146.295 215.953C162.089 217.389 180.851 212.216 180.851 212.216L178.736 207.048C178.736 207.048 147.096 202.915 146.295 202.336C145.494 201.758 114.485 176.633 111.643 182.463Z" fill="#A2DFF2"/>
<path d="M121.733 156.921C122.452 158.815 121.925 160.771 120.555 161.293C119.185 161.815 117.491 160.703 116.772 158.809C116.053 156.916 116.58 154.959 117.95 154.437C119.32 153.917 121.013 155.028 121.733 156.921Z" fill="#A86B48"/>
<path d="M136.377 144.801C138.521 143.905 140.936 142.946 140.188 146.592C139.864 148.18 140.188 147.732 140.758 149.198C141.327 150.663 139.323 151.814 138.673 152.627C138.021 153.441 139.62 154.326 138.318 155.303C137.017 156.28 135.301 154.941 134.088 155.303C130.469 156.384 130.916 153.534 128.883 152.943C126.849 152.349 125.852 152.441 125.466 153.744C125.08 155.047 126.89 159.333 125.344 158.926C123.799 158.519 123.451 161.978 123.035 163.933C122.619 165.887 121.559 162.584 121.627 160.349C121.733 156.921 120.882 155.481 119.621 154.522C118.359 153.563 117.822 144.843 123.923 144.516C130.023 144.19 130.062 143.601 132.665 143.05C135.268 142.5 135.4 145.21 136.377 144.801Z" fill="#303C60"/>
<path d="M478.405 244.391C482.294 247.945 480.604 251.501 477.727 258.102C474.853 264.703 474.345 289.078 474.345 289.078L476.713 288.74C476.713 288.74 476.375 263.688 479.588 256.917C482.802 250.146 484.155 246.761 487.03 248.962C489.906 251.162 478.405 244.391 478.405 244.391Z" fill="#74B570"/>
<path d="M476.268 239.789C476.74 237.682 479.545 235.403 483.296 233.469C482.739 236.576 480.951 241.656 482.802 242.699C485.298 244.103 483.044 237.01 484.008 233.112C487.53 231.39 491.768 229.983 495.671 229.283C495.664 229.298 495.66 229.312 495.655 229.327C493.456 234.913 490.582 237.113 491.766 237.958C492.655 238.595 495.556 232.144 499.388 228.836C502.263 228.683 504.695 229.072 506.134 230.213C508.358 231.975 509.852 233.538 507.615 238.905C506.336 239.819 504.681 240.474 502.758 240.667C497.685 241.175 495.317 241.344 498.868 243.037C500.608 243.866 503.522 242.991 505.886 242.456C505.119 243.87 504.176 245.471 503.032 247.294C502.305 248.451 501.504 249.454 500.654 250.322C499.02 250.636 497.593 250.639 496.839 250.315C494.471 249.3 488.383 246.083 486.861 247.438C485.371 248.763 498.137 249.603 497.252 252.971C491.063 256.538 483.983 254.841 482.732 251.565C481.051 247.165 474.846 246.13 476.268 239.789Z" fill="#9CD499"/>
<path d="M489.059 263.857C482.294 258.778 475.361 263.518 471.808 268.935C468.257 274.351 470.794 286.538 470.794 286.538C470.794 286.538 472.146 286.538 472.146 286.031C472.146 285.523 468.425 271.644 477.221 265.38C482.723 261.462 486.691 263.349 487.199 265.211C487.706 267.073 485.001 270.458 485.001 270.458L489.059 263.857Z" fill="#74B570"/>
<path d="M473.5 253.419C480.265 253.419 482.464 263.914 480.603 270.006C478.743 276.101 476.205 287.441 476.205 287.441L474.514 285.749C474.514 285.749 480.941 269.838 479.419 262.729C477.897 255.619 474.176 254.434 473.5 254.434C472.824 254.434 473.5 253.419 473.5 253.419Z" fill="#9CD499"/>
<path d="M479.175 270.054C479.65 269.423 480.238 268.902 480.954 268.555C480.861 269.061 480.744 269.546 480.604 270.006C479.755 272.784 478.768 276.649 477.942 280.034C477.868 279.601 477.752 278.933 477.574 277.902C477.532 277.658 477.499 277.394 477.476 277.114C478.138 274.859 478.765 272.401 479.175 270.054Z" fill="#74B570"/>
<path d="M481.024 270.105C493.877 264.688 487.105 257.255 498.437 262.164C499.235 262.509 500.207 263.382 501.182 264.584C500.171 264.87 498.95 265.077 497.591 264.873C494.208 264.364 495.392 267.073 500.974 267.75C502.025 267.877 502.879 268.054 503.588 268.302C506.248 273.414 507.446 280.138 501.82 282.476C500.711 282.937 499.34 283.2 497.814 283.299C496.078 281.918 498.238 273.925 495.561 275.028C492.991 276.088 496.367 281.88 495.904 283.339C493.368 283.294 490.559 282.878 487.875 282.212C486.813 281.617 486.001 280.818 485.752 279.768C484.906 276.213 490.487 274.012 490.657 270.965C490.812 268.165 488.611 277.128 482.78 278.447C477.507 275.983 475.016 272.637 481.024 270.105Z" fill="#9CD499"/>
<path d="M471.864 260.528C473.218 257.651 469.666 256.973 469.835 259.173C469.985 261.124 470.002 265.863 468.004 267.154C464.558 266.78 459.87 265.391 456.325 263.272C456.28 262.986 456.324 262.691 456.475 262.39C457.997 259.343 467.805 256.804 464.762 255.789C462.338 254.979 458.089 259.754 454.665 262.159C452.609 260.597 451.232 258.736 451.232 256.659C451.232 253.846 454.646 250.663 459.061 249.141C461.048 249.343 462.894 250.429 465.777 252.065C470.035 254.481 469.05 250.574 465.024 248.258C468.499 248.437 471.966 249.924 474.521 253.475C474.521 253.475 474.28 254.993 475.885 257.341C480.264 263.746 475.21 267.485 469.169 267.243C469.511 265.555 470.931 262.516 471.864 260.528Z" fill="#9CD499"/>
<path d="M488.653 263.57C491.96 266.128 495.633 269.118 500.144 271.149C504.654 273.181 503.752 279.801 503.752 279.801C503.752 279.801 504.428 274.084 500.669 272.127C496.912 270.172 494.431 267.839 491.574 267.388C488.719 266.936 487.139 266.485 487.139 266.485C487.139 266.485 488.041 264.679 487.515 264.002C486.99 263.326 488.653 263.57 488.653 263.57Z" fill="#74B570"/>
<path d="M504.954 233.533C492.853 236.768 483.982 244.517 482.328 246.398C480.675 248.278 480.675 248.806 480.675 248.806L481.953 251.213L482.554 250.911C482.554 250.911 481.577 248.881 484.133 246.248C488.541 241.706 493.904 238.122 497.588 236.542C501.271 234.962 504.954 233.533 504.954 233.533Z" fill="#74B570"/>
<path d="M471.548 300.579H476.172C479.46 300.579 482.125 297.911 482.125 294.62V283.988H465.595V294.62C465.595 297.911 468.26 300.579 471.548 300.579Z" fill="#75A1DE"/>
<path d="M482.125 287.053H465.595V285.889H482.125V287.053Z" fill="white"/>
<path d="M482.125 288.697H465.595V288.012H482.125V288.697Z" fill="white"/>
<path d="M275.449 61.9571C275.449 49.4193 265.373 39.2354 252.883 39.0764C240.335 38.9148 229.923 49.0288 229.723 61.5858C229.626 67.7156 231.938 73.3029 235.773 77.4652C237.539 79.382 238.519 81.8934 238.519 84.502V94.76C238.519 101.395 243.944 106.825 250.575 106.825H254.594C261.225 106.825 266.651 101.395 266.651 94.76V84.5034C266.651 81.8728 267.664 79.3573 269.439 77.4186C273.171 73.3467 275.449 67.9184 275.449 61.9571Z" fill="#F5DC95"/>
<path d="M254.314 102.093H250.856C245.151 102.093 240.485 97.422 240.485 91.7128V82.888C240.485 80.6452 239.641 78.4832 238.12 76.8336C234.823 73.2535 232.834 68.4459 232.917 63.1724C233.088 52.4541 241.907 43.8061 252.587 43.8061C252.672 43.8061 252.757 43.8074 252.842 43.8088C263.587 43.9458 272.253 52.7062 272.253 63.4929C272.253 68.6212 270.295 73.2919 267.084 76.7952C265.557 78.4626 264.685 80.626 264.685 82.8894V91.7128C264.685 97.422 260.018 102.093 254.314 102.093Z" fill="#FAEECA"/>
<path d="M255.964 88.615H248.435C248.081 88.615 247.785 88.3451 247.754 87.993C247.74 87.8464 246.334 73.3001 239.836 69.2254C239.514 69.0254 239.418 68.602 239.618 68.2814C239.819 67.9608 240.241 67.8636 240.561 68.065C246.902 72.0383 248.704 84.2965 249.05 87.2449H255.24C255.216 86.2338 255.273 84.28 255.856 81.7522C256.635 78.3736 258.545 73.2768 263.22 68.1814C263.476 67.9033 263.908 67.8855 264.188 68.1403C264.466 68.3965 264.485 68.8309 264.229 69.109C255.682 78.4201 256.634 87.7601 256.643 87.8532C256.665 88.0464 256.604 88.241 256.474 88.3862C256.345 88.5328 256.159 88.615 255.964 88.615Z" fill="#94BDF2"/>
<path d="M242.223 62.3627C241.771 62.3627 241.381 62.4463 241.071 62.6313C240.398 63.0286 240.051 63.9863 240.037 65.4756C240.023 67.0553 240.371 68.0705 241.071 68.4952C242.76 69.5201 246.705 67.6156 250.49 65.6167C247.431 63.9835 244.219 62.3627 242.223 62.3627ZM253.398 65.6208C257.156 67.6211 261.088 69.5351 262.824 68.5103C263.551 68.0828 263.929 67.0553 263.95 65.4605C263.97 63.9534 263.644 62.9847 262.982 62.5806C261.303 61.5585 257.228 63.5876 253.398 65.6208ZM261.6 70.1626C259.058 70.1626 255.592 68.3555 251.943 66.3963C247.228 68.909 242.825 71.1628 240.361 69.668C239.203 68.9652 238.649 67.5896 238.668 65.4632C238.686 63.4602 239.259 62.1106 240.374 61.4516C242.842 59.9883 247.254 62.323 251.945 64.8426C256.728 62.2887 261.234 59.9116 263.694 61.4105C264.798 62.0846 265.344 63.4519 265.318 65.4783C265.292 67.5855 264.686 69.0022 263.52 69.6913C262.965 70.0188 262.319 70.1626 261.6 70.1626Z" fill="#94BDF2"/>
<path d="M255.006 110.08H250.626C249.082 110.08 247.819 108.817 247.819 107.272V106.861C247.819 105.317 249.082 104.052 250.626 104.052H255.006C256.549 104.052 257.813 105.317 257.813 106.861V107.272C257.813 108.817 256.549 110.08 255.006 110.08Z" fill="#94BDF2"/>
<path d="M237.855 87.382V94.6381C237.855 101.589 243.536 107.274 250.481 107.274H254.689C261.633 107.274 267.314 101.589 267.314 94.6381V87.382H237.855Z" fill="#94BDF2"/>
<path d="M267.19 89.6659H238.35C237.447 89.6659 236.708 88.926 236.708 88.0218V87.8396C236.708 86.9353 237.447 86.1955 238.35 86.1955H267.19C268.093 86.1955 268.832 86.9353 268.832 87.8396V88.0218C268.832 88.926 268.093 89.6659 267.19 89.6659Z" fill="#9EC8FF"/>
<path d="M267.292 92.2677L238.672 95.8067C237.775 95.9177 236.95 95.2738 236.84 94.3763L236.817 94.1955C236.706 93.2981 237.35 92.4733 238.246 92.3623L266.868 88.8233C267.765 88.7123 268.589 89.3563 268.7 90.2537L268.722 90.4345C268.832 91.332 268.189 92.1568 267.292 92.2677Z" fill="#9EC8FF"/>
<path d="M267.292 97.281L238.672 100.82C237.775 100.931 236.95 100.287 236.84 99.3895L236.817 99.2087C236.706 98.3113 237.35 97.4865 238.246 97.3755L266.868 93.8365C267.765 93.7256 268.589 94.3695 268.7 95.2669L268.722 95.4478C268.832 96.3452 268.189 97.17 267.292 97.281Z" fill="#9EC8FF"/>
<path d="M265.527 102.646L241.689 105.593C240.867 105.695 240.11 105.104 240.008 104.281L239.952 103.831C239.851 103.008 240.441 102.25 241.264 102.149L265.102 99.2018C265.925 99.1004 266.681 99.6909 266.783 100.514L266.838 100.964C266.939 101.787 266.349 102.545 265.527 102.646Z" fill="#9EC8FF"/>
<path d="M471.912 109.15H487.277C487.277 117.587 480.341 124.528 471.912 124.528C463.484 124.528 456.549 117.587 456.549 109.15C456.549 100.714 463.484 93.7735 471.912 93.7735V109.15Z" fill="#9EC8FF"/>
<path d="M489.85 106.998C489.85 98.5045 482.972 91.6198 474.486 91.6198V106.998H489.85Z" fill="#F39892"/>
<path d="M459.121 106.998C459.121 115.491 466 122.376 474.486 122.376C466.057 122.376 459.121 115.433 459.121 106.998Z" fill="#F39892"/>
<path d="M474.486 91.6198C466 91.6198 459.121 98.5045 459.121 106.998C459.121 98.562 466.057 91.6198 474.486 91.6198Z" fill="#F39892"/>
<path d="M474.486 122.376C482.972 122.376 489.85 115.491 489.85 106.998C489.85 115.433 482.914 122.376 474.486 122.376Z" fill="#F39892"/>
<path d="M174.566 108.697H171.211V98.9785H174.566V108.697Z" fill="#9EC8FF"/>
<path d="M217.578 108.697H214.222V102.141H217.578V108.697Z" fill="#9EC8FF"/>
<path d="M188.788 108.697H185.431V85.9598H188.788V108.697Z" fill="#9EC8FF"/>
<path d="M195.899 108.697H192.543V98.477H195.899V108.697Z" fill="#9EC8FF"/>
<path d="M203.009 108.697H199.653V95.5847H203.009V108.697Z" fill="#9EC8FF"/>
<path d="M181.677 108.697H178.321V92.5622H181.677V108.697Z" fill="#9EC8FF"/>
<path d="M210.144 108.697H206.788V88.8247H210.144V108.697Z" fill="#9EC8FF"/>
<path d="M81.7742 80.5192L64.1759 69.7475L60.9927 90.1468C69.2599 91.4511 77.459 87.5738 81.7742 80.5192Z" fill="#A2DFF2"/>
<path d="M81.7927 80.4945C81.8402 80.4164 81.9022 80.3096 81.8998 80.3137C85.6166 74.0825 85.7667 66.3428 82.3566 59.991C76.1289 63.2559 79.8375 61.272 64.1759 69.7475C81.8033 80.537 79.0657 78.8723 81.7927 80.4945Z" fill="#9CD499"/>
<path d="M44.8308 62.6134L64.1759 69.7475L82.3233 59.9266C73.8347 44.2143 50.9855 46.0996 44.8308 62.6134Z" fill="#9EC8FF"/>
<path d="M60.9928 90.1469L64.1759 69.7475L44.8308 62.6133C40.2307 74.9566 48.3956 88.1589 60.9928 90.1469Z" fill="#F39892"/>
<path d="M43.5651 65.9907C43.9254 65.9907 44.2564 66.0824 44.5427 66.2441C44.71 65.3193 44.9429 64.4013 45.2451 63.4971L55.7494 67.3703L55.7486 67.3608C55.7271 66.8812 55.9075 66.4332 56.2051 66.0783L55.1534 65.6906L45.7232 62.2119C46.4969 60.328 47.5259 58.614 48.7614 57.0987C48.3166 56.9357 47.9529 56.6205 47.7128 56.2177C46.3789 57.8509 45.2699 59.7019 44.4394 61.7392L44.428 61.7351L44.1898 62.375L43.9497 63.0189L43.9611 63.023C43.6283 64.0122 43.3733 65.0165 43.1915 66.029C43.3143 66.0044 43.4392 65.9907 43.5651 65.9907Z" fill="white"/>
<path d="M81.5501 79.5532L81.4196 79.4765C80.7007 79.0504 80.3883 78.8655 78.9553 77.99L65.5477 69.7844L76.6778 63.7615C78.3122 62.8805 78.9821 62.5298 80.6421 61.6611C81.0476 61.4488 81.512 61.2063 82.0639 60.9172C84.9645 66.799 84.7748 73.8372 81.5501 79.5532ZM61.7764 89.5645L64.694 70.8682L72.2869 75.5155C75.3482 77.3898 77.0994 78.4626 78.202 79.1354L80.8232 80.7397C76.6419 87.086 69.2951 90.4907 61.7764 89.5645ZM83.2398 60.2102L83.2511 60.2033L82.9255 59.6005L82.9051 59.5649L82.639 59.0689L82.6287 59.0744C80.5753 55.5039 77.6474 52.6555 74.1258 50.8195C70.6771 49.0206 66.7566 48.2164 62.7863 48.4931C58.1184 48.8165 53.8656 50.5688 50.4874 53.4022C50.8844 53.6433 51.1885 54.0187 51.3573 54.4626C54.5216 51.806 58.5064 50.1633 62.8811 49.8591C70.5161 49.3275 77.5436 53.0679 81.386 59.6553L76.0263 62.5558C74.9198 63.1518 73.3729 63.9889 70.7832 65.3919C69.124 66.2907 67.0363 67.421 64.3623 68.8678L64.1971 68.9583L63.6581 68.6281L63.6287 68.8158L59.8543 67.4238C59.8581 67.9047 59.6622 68.3499 59.3497 68.698L63.4133 70.1968L60.4242 89.3508C54.7788 88.2602 49.8942 84.7856 46.9468 79.7368C45.1851 76.7185 44.2715 73.3604 44.2303 69.979C44.0167 70.0557 43.7922 70.1009 43.565 70.1009C43.3142 70.1009 43.0789 70.0543 42.8616 69.9721C42.9013 73.596 43.8775 77.1939 45.7647 80.4273C48.9208 85.8351 54.1595 89.5508 60.213 90.7045L60.2112 90.7168L60.8855 90.8237L61.5634 90.9305L61.5652 90.9182C62.4408 91.0278 63.318 91.0826 64.1931 91.0826C67.271 91.0826 70.3197 90.4099 73.1544 89.0878C76.7839 87.3971 79.8329 84.7527 82.011 81.4207L82.0248 81.4289L82.1589 81.2097L82.3771 80.8507C82.4106 80.7959 82.4507 80.7274 82.4736 80.6891L82.488 80.6658L82.4985 80.6466L82.7156 80.2917L82.7058 80.2849C86.2028 74.1331 86.4021 66.5359 83.2398 60.2102Z" fill="#E7F3FE"/>
<path d="M177.027 73.5234H120.275C119.658 73.5234 119.157 73.022 119.157 72.4041V47.9615C119.157 47.3436 119.658 46.8421 120.275 46.8421H177.027C177.644 46.8421 178.145 47.3436 178.145 47.9615V72.4041C178.145 73.022 177.644 73.5234 177.027 73.5234Z" fill="#9EC8FF"/>
<path d="M175.629 72.2712H121.673C121.174 72.2712 120.77 71.8657 120.77 71.3669V54.7572C120.77 54.2571 121.174 53.853 121.673 53.853H175.629C176.127 53.853 176.532 54.2571 176.532 54.7572V71.3669C176.532 71.8657 176.127 72.2712 175.629 72.2712Z" fill="white"/>
<path d="M123.399 50.8881H122.09C121.813 50.8881 121.589 50.6634 121.589 50.3866V49.307C121.589 49.0303 121.813 48.8055 122.09 48.8055H123.399C123.676 48.8055 123.9 49.0303 123.9 49.307V50.3866C123.9 50.6634 123.676 50.8881 123.399 50.8881Z" fill="white"/>
<path d="M127.601 50.8881H126.291C126.015 50.8881 125.791 50.6634 125.791 50.3866V49.307C125.791 49.0303 126.015 48.8055 126.291 48.8055H127.601C127.877 48.8055 128.101 49.0303 128.101 49.307V50.3866C128.101 50.6634 127.877 50.8881 127.601 50.8881Z" fill="white"/>
<path d="M131.802 50.8881H130.493C130.216 50.8881 129.992 50.6634 129.992 50.3866V49.307C129.992 49.0303 130.216 48.8055 130.493 48.8055H131.802C132.079 48.8055 132.303 49.0303 132.303 49.307V50.3866C132.303 50.6634 132.079 50.8881 131.802 50.8881Z" fill="white"/>
<path d="M174.263 57.8892H144.768C144.283 57.8892 143.886 57.4919 143.886 57.0055C143.886 56.5205 144.283 56.1232 144.768 56.1232H174.263C174.748 56.1232 175.145 56.5205 175.145 57.0055C175.145 57.4919 174.748 57.8892 174.263 57.8892Z" fill="#9EC8FF"/>
<path d="M152.079 71.5135H122.583C122.098 71.5135 121.701 71.1162 121.701 70.6312C121.701 70.1448 122.098 69.7475 122.583 69.7475H152.079C152.564 69.7475 152.961 70.1448 152.961 70.6312C152.961 71.1162 152.564 71.5135 152.079 71.5135Z" fill="#9EC8FF"/>
<path d="M157.512 71.5135H154.459C154.294 71.5135 154.158 71.3779 154.158 71.2121V70.0503C154.158 69.8845 154.294 69.7475 154.459 69.7475H157.512C157.678 69.7475 157.813 69.8845 157.813 70.0503V71.2121C157.813 71.3779 157.678 71.5135 157.512 71.5135Z" fill="#9EC8FF"/>
<path d="M162.113 71.5135H159.06C158.895 71.5135 158.759 71.3779 158.759 71.2121V70.0503C158.759 69.8845 158.895 69.7475 159.06 69.7475H162.113C162.279 69.7475 162.414 69.8845 162.414 70.0503V71.2121C162.414 71.3779 162.279 71.5135 162.113 71.5135Z" fill="#9EC8FF"/>
<path d="M174.547 61.7378H125.703C125.374 61.7378 125.104 61.4679 125.104 61.1377C125.104 60.8075 125.374 60.5389 125.703 60.5389H174.547C174.876 60.5389 175.145 60.8075 175.145 61.1377C175.145 61.4679 174.876 61.7378 174.547 61.7378Z" fill="#9EC8FF"/>
<path d="M174.547 64.3233H125.703C125.374 64.3233 125.104 64.0534 125.104 63.7245C125.104 63.3943 125.374 63.1244 125.703 63.1244H174.547C174.876 63.1244 175.145 63.3943 175.145 63.7245C175.145 64.0534 174.876 64.3233 174.547 64.3233Z" fill="#9EC8FF"/>
<path d="M321.901 56.5342H296.712V41.8413H315.655C318.095 44.2814 319.463 45.6502 321.901 48.0917V56.5342Z" fill="#FFB8B3"/>
<path d="M315.193 41.8413V49.6838H321.901V48.1767L315.613 41.8838L315.193 41.8413Z" fill="#F39892"/>
<path d="M315.655 41.8413V48.1767H321.901L315.655 41.8413Z" fill="#FFB8B3"/>
<path d="M310.778 47.3546H299.553C299.309 47.3546 299.108 47.1545 299.108 46.9093C299.108 46.6641 299.309 46.464 299.553 46.464H310.778C311.023 46.464 311.223 46.6641 311.223 46.9093C311.223 47.1545 311.023 47.3546 310.778 47.3546Z" fill="white"/>
<path d="M310.778 49.6331H299.553C299.309 49.6331 299.108 49.4317 299.108 49.1878C299.108 48.9425 299.309 48.7425 299.553 48.7425H310.778C311.023 48.7425 311.223 48.9425 311.223 49.1878C311.223 49.4317 311.023 49.6331 310.778 49.6331Z" fill="white"/>
<path d="M310.778 52.0307H299.553C299.309 52.0307 299.108 51.8293 299.108 51.5854C299.108 51.3402 299.309 51.1401 299.553 51.1401H310.778C311.023 51.1401 311.223 51.3402 311.223 51.5854C311.223 51.8293 311.023 52.0307 310.778 52.0307Z" fill="white"/>
<path d="M309.306 42.9703C309.306 43.3868 308.969 43.7238 308.553 43.7238C308.139 43.7238 307.8 43.3868 307.8 42.9703C307.8 42.5537 308.139 42.2167 308.553 42.2167C308.969 42.2167 309.306 42.5537 309.306 42.9703Z" fill="#3E6BAB"/>
<path d="M209.931 61.5269L194.213 58.488L197.875 39.519L213.593 42.5592L209.931 61.5269Z" fill="#FAE8B6"/>
<path d="M210.267 50.7593L201.934 49.148C201.712 49.1056 201.566 48.8877 201.608 48.6658C201.651 48.4438 201.868 48.2972 202.09 48.3411L210.423 49.9523C210.645 49.9948 210.791 50.2112 210.749 50.4332C210.705 50.6551 210.489 50.8017 210.267 50.7593Z" fill="#9EC8FF"/>
<path d="M209.864 52.8446L201.532 51.2333C201.31 51.1895 201.163 50.973 201.206 50.751C201.248 50.5291 201.465 50.3825 201.686 50.4263L210.02 52.0376C210.242 52.08 210.389 52.2965 210.346 52.5185C210.302 52.7404 210.086 52.887 209.864 52.8446Z" fill="#9EC8FF"/>
<path d="M209.451 54.9875L201.118 53.3748C200.895 53.3324 200.75 53.1159 200.792 52.8939C200.835 52.672 201.051 52.5254 201.273 52.5679L209.607 54.1791C209.829 54.2229 209.975 54.4394 209.932 54.6614C209.889 54.8833 209.673 55.0299 209.451 54.9875Z" fill="#9EC8FF"/>
<path d="M204.625 42.0633C204.554 42.4346 204.196 42.6771 203.825 42.6058C203.452 42.5346 203.21 42.1743 203.281 41.803C203.354 41.4316 203.712 41.1891 204.083 41.2604C204.454 41.333 204.698 41.692 204.625 42.0633Z" fill="#3E6BAB"/>
<path d="M333.526 77.0925L309.201 74.5277L310.807 59.2676L330.094 61.3008C331.854 63.4779 332.841 64.6972 334.602 66.8743L333.526 77.0925Z" fill="#9EC8FF"/>
<path d="M329.749 62.39L311.642 60.4801L310.288 73.3563L332.797 75.7307L333.591 68.191L329.187 67.7266L329.749 62.39Z" fill="white"/>
<path d="M327.294 67.0675L315.565 65.8303C315.297 65.8029 315.1 65.559 315.128 65.2905C315.156 65.0206 315.399 64.8246 315.668 64.8521L327.397 66.0893C327.666 66.118 327.862 66.3605 327.835 66.6305C327.806 66.899 327.564 67.0963 327.294 67.0675Z" fill="#9EC8FF"/>
<path d="M327.022 69.6543L315.293 68.4185C315.024 68.3897 314.827 68.1458 314.856 67.8773C314.885 67.6087 315.127 67.4115 315.395 67.4402L327.126 68.676C327.394 68.7048 327.59 68.9473 327.563 69.2172C327.534 69.4858 327.292 69.6831 327.022 69.6543Z" fill="#9EC8FF"/>
<path d="M326.738 72.3561L315.009 71.1189C314.74 71.0901 314.544 70.8476 314.571 70.5777C314.6 70.3092 314.842 70.1119 315.112 70.1407L326.841 71.3778C327.109 71.4052 327.307 71.6491 327.278 71.9177C327.249 72.1862 327.007 72.3835 326.738 72.3561Z" fill="#9EC8FF"/>
<path d="M320.662 62.7915C320.662 63.2066 320.325 63.545 319.909 63.545C319.494 63.545 319.156 63.2066 319.156 62.7915C319.156 62.375 319.494 62.038 319.909 62.038C320.325 62.038 320.662 62.375 320.662 62.7915Z" fill="#3E6BAB"/>
<path d="M454.39 50.8881C454.39 55.53 450.63 59.2936 445.992 59.2936C441.354 59.2936 437.593 55.53 437.593 50.8881C437.593 46.2462 441.354 42.4825 445.992 42.4825C450.63 42.4825 454.39 46.2462 454.39 50.8881Z" fill="#9CD499"/>
<path d="M445.158 53.7652L445.143 53.7639C445.029 53.7598 444.924 53.7104 444.85 53.6255L442.568 51.0305C442.419 50.8606 442.435 50.6003 442.605 50.451C442.776 50.3003 443.035 50.3181 443.185 50.488L445.18 52.7568L449.744 48.2862C449.905 48.1273 450.165 48.1301 450.324 48.2931C450.483 48.4548 450.48 48.7151 450.319 48.874L445.445 53.6474C445.369 53.7228 445.265 53.7652 445.158 53.7652Z" fill="white"/>
<path d="M67.5927 128.915H116.012C117.253 128.915 118.268 127.898 118.268 126.656V109.342C118.268 108.101 117.253 107.084 116.012 107.084H67.5927C66.3518 107.084 65.3364 108.101 65.3364 109.342V126.656C65.3364 127.898 66.3518 128.915 67.5927 128.915Z" fill="#9EC8FF"/>
<path d="M111.875 125.621V137.666L98.0076 123.787C98.0076 123.787 111.593 125.621 111.875 125.621Z" fill="#9EC8FF"/>
<path d="M69.9871 126.75H113.617C114.67 126.75 115.53 125.889 115.53 124.836V111.163C115.53 110.111 114.67 109.249 113.617 109.249H69.9871C68.9349 109.249 68.0742 110.111 68.0742 111.163V124.836C68.0742 125.889 68.9349 126.75 69.9871 126.75Z" fill="white"/>
<path d="M89.6869 113.577H111.123C111.64 113.577 112.063 113.154 112.063 112.636C112.063 112.118 111.64 111.694 111.123 111.694H89.6869C89.1699 111.694 88.7469 112.118 88.7469 112.636C88.7469 113.154 89.1699 113.577 89.6869 113.577Z" fill="#9EC8FF"/>
<path d="M71.7822 117.175H111.541C111.828 117.175 112.063 116.939 112.063 116.651V116.64C112.063 116.353 111.828 116.117 111.541 116.117H71.7822C71.4948 116.117 71.2596 116.353 71.2596 116.64V116.651C71.2596 116.939 71.4948 117.175 71.7822 117.175Z" fill="#9EC8FF"/>
<path d="M71.7822 119.223H111.541C111.828 119.223 112.063 118.987 112.063 118.7V118.689C112.063 118.401 111.828 118.165 111.541 118.165H71.7822C71.4948 118.165 71.2596 118.401 71.2596 118.689V118.7C71.2596 118.987 71.4948 119.223 71.7822 119.223Z" fill="#9EC8FF"/>
<path d="M425.701 113.662H428.239C428.776 113.662 429.21 113.227 429.21 112.69V110.6C429.21 110.062 428.776 109.628 428.239 109.628H425.701C425.166 109.628 424.732 110.062 424.732 110.6V112.69C424.732 113.227 425.166 113.662 425.701 113.662Z" fill="#9EC8FF"/>
<path d="M417.559 113.662H420.097C420.633 113.662 421.067 113.227 421.067 112.69V110.6C421.067 110.062 420.633 109.628 420.097 109.628H417.559C417.023 109.628 416.59 110.062 416.59 110.6V112.69C416.59 113.227 417.023 113.662 417.559 113.662Z" fill="#9EC8FF"/>
<path d="M409.416 113.662H411.954C412.491 113.662 412.925 113.227 412.925 112.69V110.6C412.925 110.062 412.491 109.628 411.954 109.628H409.416C408.881 109.628 408.447 110.062 408.447 110.6V112.69C408.447 113.227 408.881 113.662 409.416 113.662Z" fill="#9EC8FF"/>
</svg>
