<svg width="151" height="32" viewBox="0 0 151 32" fill="none" xmlns="http://www.w3.org/2000/svg">
<rect x="16" y="16" width="16" height="16" fill="#1C7293"/>
<circle cx="16" cy="16" r="16" fill="#1C7293"/>
<path d="M44.672 7.744C44.672 7.584 44.72 7.456 44.816 7.36C44.928 7.248 45.08 7.192 45.272 7.192H59.624C59.816 7.192 59.96 7.248 60.056 7.36C60.168 7.456 60.224 7.584 60.224 7.744V10.6C60.224 10.904 60.048 11.056 59.696 11.056H55.448C55.256 11.056 55.16 11.136 55.16 11.296V24.472C55.16 24.648 55.12 24.784 55.04 24.88C54.96 24.96 54.848 25 54.704 25H50.144C49.856 25 49.712 24.84 49.712 24.52V11.392C49.712 11.168 49.624 11.056 49.448 11.056H45.224C44.856 11.056 44.672 10.904 44.672 10.6V7.744ZM63.4636 19.912C63.4636 20.616 63.6876 21.152 64.1356 21.52C64.5996 21.888 65.1996 22.072 65.9356 22.072C66.3676 22.072 66.7836 21.976 67.1836 21.784C67.5836 21.576 68.0396 21.224 68.5516 20.728C68.6156 20.664 68.6796 20.632 68.7436 20.632C68.8076 20.632 68.9116 20.656 69.0556 20.704L71.2396 21.592C71.3836 21.64 71.4556 21.736 71.4556 21.88C71.4556 21.976 71.4156 22.072 71.3356 22.168C70.5036 23.336 69.6316 24.144 68.7196 24.592C67.8236 25.024 66.6796 25.24 65.2876 25.24C64.0236 25.24 62.8716 24.968 61.8316 24.424C60.8076 23.88 59.9996 23.128 59.4076 22.168C58.8156 21.192 58.5196 20.088 58.5196 18.856C58.5196 17.528 58.8236 16.352 59.4316 15.328C60.0396 14.288 60.8556 13.48 61.8796 12.904C62.9036 12.328 64.0076 12.04 65.1916 12.04C66.4556 12.04 67.5756 12.312 68.5516 12.856C69.5436 13.4 70.3196 14.192 70.8796 15.232C71.4396 16.256 71.7196 17.48 71.7196 18.904C71.7196 19.128 71.6956 19.28 71.6476 19.36C71.5996 19.44 71.4796 19.488 71.2876 19.504H63.8236C63.5836 19.504 63.4636 19.64 63.4636 19.912ZM66.6556 17.032C66.8156 17.032 66.9196 17.016 66.9676 16.984C67.0316 16.936 67.0636 16.84 67.0636 16.696C67.0636 16.296 66.9196 15.888 66.6316 15.472C66.3436 15.056 65.9356 14.848 65.4076 14.848C64.8796 14.848 64.4316 15.032 64.0636 15.4C63.6956 15.768 63.5196 16.304 63.5356 17.008L66.6556 17.032ZM79.9239 23.992C78.9319 24.824 77.7719 25.24 76.4439 25.24C75.2759 25.24 74.3399 24.912 73.6359 24.256C72.9479 23.6 72.6039 22.76 72.6039 21.736C72.6039 20.808 72.8999 19.992 73.4919 19.288C74.0999 18.568 74.9559 18.016 76.0599 17.632C77.1799 17.232 78.4839 17.032 79.9719 17.032H80.1399C80.3799 17.032 80.4999 16.92 80.4999 16.696V16.288C80.4999 15.36 80.0279 14.896 79.0839 14.896C78.6999 14.896 78.3399 14.984 78.0039 15.16C77.6679 15.336 77.4039 15.624 77.2119 16.024C77.1639 16.136 77.1079 16.216 77.0439 16.264C76.9959 16.296 76.9239 16.312 76.8279 16.312C76.7159 16.312 76.6279 16.304 76.5639 16.288L73.4199 15.664C73.2439 15.632 73.1559 15.528 73.1559 15.352C73.1559 15.24 73.1879 15.088 73.2519 14.896C73.9239 12.992 75.9399 12.04 79.2999 12.04C81.3959 12.04 82.8759 12.384 83.7399 13.072C84.6199 13.76 85.0599 14.736 85.0599 16V24.352C85.0599 24.592 85.0199 24.76 84.9399 24.856C84.8759 24.952 84.7319 25 84.5079 25H81.2199C81.0279 25 80.8839 24.928 80.7879 24.784C80.7079 24.64 80.6439 24.432 80.5959 24.16L80.5719 23.992C80.5559 23.832 80.4919 23.752 80.3799 23.752C80.2519 23.752 80.0999 23.832 79.9239 23.992ZM80.4999 19.624C80.4999 19.464 80.4759 19.352 80.4279 19.288C80.3799 19.224 80.2839 19.192 80.1399 19.192H80.0439C79.7399 19.192 79.3639 19.264 78.9159 19.408C78.4839 19.552 78.0999 19.768 77.7639 20.056C77.4279 20.328 77.2599 20.672 77.2599 21.088C77.2599 21.424 77.3799 21.696 77.6199 21.904C77.8599 22.112 78.1959 22.216 78.6279 22.216C79.1399 22.216 79.5799 22.064 79.9479 21.76C80.3159 21.456 80.4999 21.168 80.4999 20.896V19.624ZM87.5377 25C87.3137 25 87.1537 24.96 87.0577 24.88C86.9617 24.784 86.9137 24.624 86.9137 24.4V12.832C86.9137 12.672 86.9537 12.544 87.0337 12.448C87.1297 12.336 87.2417 12.28 87.3697 12.28H91.2097C91.4977 12.28 91.6417 12.44 91.6417 12.76V13.84C91.6417 13.968 91.6817 14.032 91.7617 14.032C91.8257 14.032 91.8897 14 91.9537 13.936C92.4977 13.344 93.0977 12.88 93.7537 12.544C94.4097 12.192 95.0897 12.016 95.7937 12.016C96.6097 12.016 97.3137 12.216 97.9057 12.616C98.4977 13.016 98.9297 13.584 99.2017 14.32C99.2337 14.384 99.2737 14.416 99.3217 14.416C99.3537 14.416 99.4097 14.376 99.4897 14.296C99.9377 13.672 100.562 13.144 101.362 12.712C102.178 12.264 102.938 12.04 103.642 12.04C104.746 12.04 105.634 12.392 106.306 13.096C106.994 13.8 107.338 14.784 107.338 16.048V24.28C107.338 24.76 107.09 25 106.594 25H103.09C102.882 25 102.738 24.96 102.658 24.88C102.578 24.784 102.538 24.624 102.538 24.4V16.576C102.538 16.224 102.426 15.944 102.202 15.736C101.978 15.528 101.674 15.424 101.29 15.424C101.002 15.424 100.714 15.512 100.426 15.688C100.138 15.864 99.8977 16.088 99.7057 16.36C99.5777 16.536 99.5137 16.752 99.5137 17.008V24.28C99.5137 24.76 99.2737 25 98.7937 25H95.2897C95.0977 25 94.9537 24.96 94.8577 24.88C94.7777 24.784 94.7377 24.624 94.7377 24.4V16.576C94.7377 16.224 94.6257 15.944 94.4017 15.736C94.1777 15.528 93.8737 15.424 93.4897 15.424C92.7537 15.424 92.1617 15.824 91.7137 16.624V24.304C91.7137 24.56 91.6497 24.744 91.5217 24.856C91.4097 24.952 91.2097 25 90.9217 25H87.5377ZM124.611 17.968C124.611 20.592 123.947 22.464 122.619 23.584C121.291 24.688 119.395 25.24 116.931 25.24C114.163 25.24 112.187 24.6 111.003 23.32C109.835 22.04 109.251 20.096 109.251 17.488V7.744C109.251 7.568 109.291 7.432 109.371 7.336C109.451 7.24 109.563 7.192 109.707 7.192H114.267C114.555 7.192 114.699 7.36 114.699 7.696V18.064C114.699 19.248 114.923 20.104 115.371 20.632C115.835 21.16 116.491 21.424 117.339 21.424C118.171 21.424 118.843 21.16 119.355 20.632C119.867 20.104 120.123 19.224 120.123 17.992V7.744C120.123 7.376 120.275 7.192 120.579 7.192H124.179C124.467 7.192 124.611 7.36 124.611 7.696V17.968ZM130.84 12.28C131.064 12.28 131.224 12.328 131.32 12.424C131.416 12.504 131.464 12.648 131.464 12.856V13.36C131.464 13.456 131.512 13.504 131.608 13.504C131.688 13.504 131.76 13.472 131.824 13.408C132.32 12.944 132.824 12.6 133.336 12.376C133.864 12.152 134.48 12.04 135.184 12.04C136.592 12.04 137.728 12.592 138.592 13.696C139.456 14.8 139.888 16.432 139.888 18.592C139.888 20.88 139.44 22.56 138.544 23.632C137.648 24.704 136.472 25.24 135.016 25.24C134.424 25.24 133.88 25.152 133.384 24.976C132.904 24.784 132.424 24.464 131.944 24.016C131.768 23.856 131.64 23.776 131.56 23.776C131.48 23.776 131.44 23.896 131.44 24.136V28.48C131.44 28.8 131.296 28.96 131.008 28.96H127.096C126.952 28.96 126.84 28.912 126.76 28.816C126.68 28.736 126.64 28.608 126.64 28.432V12.904C126.64 12.696 126.688 12.544 126.784 12.448C126.88 12.336 127.048 12.28 127.288 12.28H130.84ZM131.44 21.376C131.888 22.016 132.448 22.336 133.12 22.336C133.76 22.336 134.24 22.056 134.56 21.496C134.88 20.92 135.04 19.904 135.04 18.448C135.04 17.12 134.88 16.208 134.56 15.712C134.256 15.2 133.776 14.944 133.12 14.944C132.656 14.944 132.256 15.072 131.92 15.328C131.6 15.584 131.44 15.904 131.44 16.288V21.376Z" fill="#1C7293"/>
</svg>
